<?xml version="1.0" encoding="utf-8"?>
<!-- Generator: Adobe Illustrator 24.3.0, SVG Export Plug-In . SVG Version: 6.00 Build 0)  -->
<svg version="1.1" id="Ebene_1" xmlns="http://www.w3.org/2000/svg" xmlns:xlink="http://www.w3.org/1999/xlink" x="0px" y="0px"
	 viewBox="0 0 420 150" style="enable-background:new 0 0 420 150;" xml:space="preserve">
<style type="text/css">
	.st0{fill:#E86A14;}
	.st1{fill:#590F09;}
	.st2{fill:#181716;}
	.st3{fill:#FFFFFF;}
	.st4{clip-path:url(#SVGID_2_);}
	.st5{fill:#E3E3E3;}
	.st6{fill:#7E0D0D;}
	.st7{fill:#760B0B;}
	.st8{fill:#6E0B07;}
	.st9{fill:#720B09;}
	.st10{fill:#770B0C;}
	.st11{fill:#730A0A;}
	.st12{fill:#830F10;}
	.st13{fill:#8D0E17;}
	.st14{fill:#B31E32;}
	.st15{fill:#710A0B;}
	.st16{fill:#921315;}
	.st17{fill:#8F1013;}
	.st18{fill:#71090B;}
	.st19{fill:#B72540;}
	.st20{fill:#971224;}
	.st21{fill:#6D0807;}
	.st22{fill:#C42B4C;}
	.st23{fill:#9F1420;}
	.st24{fill:#8A131E;}
	.st25{fill:#A21624;}
	.st26{fill:#910F18;}
	.st27{fill:#8D1016;}
	.st28{fill:#A51F31;}
	.st29{fill:#660C0B;}
	.st30{fill:#9B1724;}
	.st31{fill:#71292B;}
	.st32{fill:#A5212F;}
	.st33{fill:#721414;}
	.st34{fill:#C63D65;}
	.st35{fill:#CF5379;}
	.st36{fill:#B62B43;}
	.st37{fill:#951722;}
	.st38{fill:#642323;}
	.st39{fill:#862329;}
	.st40{fill:#A42C3E;}
	.st41{fill:#773A38;}
	.st42{fill:#812B25;}
	.st43{fill:#D798A4;}
	.st44{fill:#946262;}
	.st45{fill:#612729;}
	.st46{fill:#95101C;}
	.st47{fill:#8A1217;}
	.st48{fill:#8F0E13;}
	.st49{fill:#980F15;}
	.st50{fill:#8D110F;}
	.st51{fill:#6F090A;}
	.st52{fill:#9E1118;}
	.st53{fill:#850C0E;}
	.st54{fill:#860E0D;}
	.st55{fill:#AA1320;}
	.st56{fill:#6D0907;}
	.st57{fill:#670907;}
	.st58{fill:#800C0B;}
	.st59{fill:#740A09;}
	.st60{fill:#860F0B;}
	.st61{fill:#780B0C;}
	.st62{fill:#7A0A0C;}
	.st63{fill:#B81F24;}
	.st64{fill:#A50F1D;}
	.st65{fill:#AE1623;}
	.st66{fill:#890E0D;}
	.st67{fill:#89170F;}
	.st68{fill:#930E12;}
	.st69{fill:#951013;}
	.st70{fill:#A71218;}
	.st71{fill:#8E0E13;}
	.st72{fill:#7B0E08;}
	.st73{fill:#AD1B1A;}
	.st74{fill:#A41520;}
	.st75{fill:#780B08;}
	.st76{fill:#7F0E0E;}
	.st77{fill:#6D0C0A;}
	.st78{fill:#8A0F12;}
	.st79{fill:#74292B;}
	.st80{fill:#8A1B1B;}
	.st81{fill:#965756;}
	.st82{fill:#830D0B;}
	.st83{fill:#AB1B27;}
	.st84{fill:#A30E1A;}
	.st85{fill:#906364;}
	.st86{fill:#A2161D;}
	.st87{fill:#AB1924;}
	.st88{fill:#9E181A;}
	.st89{fill:#780B09;}
	.st90{fill:#BD1E36;}
	.st91{fill:#960E13;}
	.st92{fill:#8E100F;}
	.st93{fill:#631819;}
</style>
<g>
	<ellipse id="ellipse02_1_" class="st0" cx="210" cy="75" rx="79.87" ry="65.78"/>
	<ellipse id="ellipse01_1_" class="st1" cx="210" cy="74.16" rx="68.67" ry="55.16"/>
	<g id="kellner_1_">
		<path class="st2" d="M196.93,48.45l0.13,0.19c-0.14,0.08-0.37,0.18-0.38,0.37c0.42,0.39,1.19,0.57,1.15,1.3
			c-0.14,0.19-0.33,0.33-0.55,0.42c-0.1-0.03-0.21,0-0.29,0c-0.04-0.13-0.17-0.23-0.13-0.38c0.2-0.08,0.45,0,0.62-0.15l-0.03-0.16
			c-0.38-0.38-0.95-0.48-1.22-1.02c0.08-0.28,0.22-0.58,0.53-0.64l0.16,0.11V48.45z"/>
		<path class="st2" d="M198.41,48.55c0.29,0.22,0.42,0.59,0.34,0.95c-0.4,0.13,0.21,0.61-0.24,0.65c-0.36-0.46-0.69-0.94-0.99-1.44
			C197.74,48.43,198.12,48.36,198.41,48.55z"/>
		<path class="st2" d="M199.14,47.71c0.17,0.11,0.32,0.27,0.42,0.45c-0.04,0.2-0.46,0.17-0.25,0.42c0.25,0.09,0.42-0.38,0.6,0
			c0.07,0.09-0.09,0.14-0.11,0.23c-0.16,0.03-0.33,0.27-0.51,0.09c-0.26-0.27-0.67-0.52-0.72-0.92c0.1-0.23,0.35-0.34,0.59-0.27
			L199.14,47.71z"/>
		<path class="st2" d="M201.67,46.37c-0.07,0.07-0.24,0.16-0.3,0.28c0.05,0.12,0.12,0.26,0.27,0.16c0.15-0.24,0.28-0.03,0.42,0.07
			c-0.15,0.17-0.34,0.3-0.55,0.37c-0.37-0.18-0.63-0.63-0.88-0.97c0.16-0.22,0.37-0.39,0.62-0.5L201.67,46.37L201.67,46.37z"/>
		<path class="st2" d="M199.59,47.14c0.07,0.42,0.59,0.78,0.73,1.17c-0.16,0.27-0.29-0.09-0.44-0.16
			C199.8,47.77,198.87,47.38,199.59,47.14z"/>
		<path class="st2" d="M200.46,46.78c0.05,0.11-0.17,0.13-0.14,0.26c0.06,0.07,0.16,0.04,0.26,0.07c0.27-0.16,0.33,0.23,0.53,0.38
			c-0.01,0.25-0.13,0.48-0.34,0.63c-0.16,0.03-0.1-0.16-0.21-0.21c0-0.19,0.24-0.39,0-0.57c-0.15,0.03-0.31,0-0.45-0.06
			c-0.09-0.15-0.32-0.32-0.18-0.49C200.09,46.68,200.36,46.51,200.46,46.78L200.46,46.78z"/>
		<path class="st3" d="M201.22,46.32l-0.17,0.09c-0.06-0.08-0.12-0.13-0.11-0.22C201.06,46.03,201.12,46.24,201.22,46.32z"/>
		<polygon class="st3" points="198.96,48.15 198.87,47.97 199.09,48 198.96,48.15 		"/>
		<path class="st3" d="M198.37,48.97c0.04,0.12,0.12,0.26-0.04,0.34l-0.06,0.05l-0.39-0.57C198.07,48.75,198.23,48.89,198.37,48.97z
			"/>
		<path class="st2" d="M198.35,50.99c0.07,0.09,0.15,0.16,0.25,0.22c0.07-0.26,0.1-0.53,0.08-0.8c0.06-0.2,0.27-0.08,0.42-0.12
			c0.06,0.27,0.04,0.55-0.04,0.82c0.42,0.21,0.8,0.48,1.14,0.8c-0.03,0.08-0.03,0.18-0.12,0.23c-0.29-0.26-0.63-0.46-0.99-0.61
			l-0.12,0.1l0.67,0.84c-0.03,0.14-0.21,0.08-0.26,0.16c-0.47-0.56-0.97-1.09-1.5-1.6c0-0.34,0.36-0.24,0.49-0.04L198.35,50.99z"/>
		<path class="st2" d="M201.58,49.11c0.04-0.04,0-0.12,0.09-0.14c0.16-0.05,0.18,0.13,0.28,0.2l-0.16,0.2l0.69,0.73
			c-0.01,0.12-0.1,0.22-0.22,0.25c-0.48-0.33-0.79-0.97-1.26-1.26c0.13-0.04,0.11-0.37,0.29-0.2c0.09,0.1,0.19,0.18,0.3,0.25
			L201.58,49.11z"/>
		<path class="st2" d="M200.46,49.81c0.08-0.21,0.4-0.22,0.61-0.28c0.2,0.13,0.37,0.3,0.52,0.49c-0.03,0.11-0.1,0.2-0.19,0.25
			c-0.18-0.09-0.28-0.46-0.53-0.27l0.59,0.84c-0.1,0.08-0.08,0.21-0.21,0.27c-0.33-0.4-0.63-0.82-0.89-1.26c0.02-0.03,0.06,0,0.09,0
			V49.81z"/>
		<path class="st2" d="M200.16,50.37c0.29,0.27,0.53,0.58,0.72,0.93c-0.05,0.17-0.26,0.25-0.39,0.39c-0.29-0.1-0.49-0.35-0.53-0.66
			l0.14-0.26c-0.07-0.06-0.17-0.08-0.26-0.07l-0.18,0.14c-0.11-0.09-0.17-0.26-0.06-0.34C199.76,50.36,199.97,50.31,200.16,50.37
			L200.16,50.37z"/>
		<path class="st2" d="M202.67,48.51c0.13,0.17,0.32,0.33,0.27,0.55c-0.1,0.07-0.18,0.16-0.24,0.27c0.22,0.27,0.47-0.38,0.65,0.06
			c-0.08,0.18-0.23,0.31-0.42,0.34c-0.42,0-0.77-0.45-0.96-0.84C201.96,48.59,202.38,48.21,202.67,48.51z"/>
		<path class="st3" d="M202.49,48.76l0.07,0.09c-0.11,0-0.07,0.19-0.2,0.11l-0.08-0.14C202.34,48.76,202.42,48.74,202.49,48.76
			L202.49,48.76z"/>
		<path class="st3" d="M200.53,51.2c-0.07,0.08-0.13,0.09-0.21,0.02V51.1C200.41,50.99,200.46,51.12,200.53,51.2z"/>
		<path class="st3" d="M227.97,121.03l-1.45,0.66l-1.82,0.08l-1.37-0.28l-1.6-0.22l-2.07-0.49l-0.79-0.15l-1.43-0.22l-0.45,0.16
			l-0.87,0.34l-1.11,0.29l-0.96,0.25l-0.87-0.17l-0.16-1.03l0.25-0.37l0.45-0.08l1.94-0.25l-0.45-0.91l0.53-0.49l0.58,0.25
			l0.91,0.42l0.74-0.17h0.58l1.4-0.49l0.62-0.13l1.61,0.45l1.16-1.03l0.7-1.26l1.4-1.68l-1.19-1.78l-1.61-1.03l-1.9-0.58l0.08-0.95
			c1.05,0,1.68-0.04,2.64,0.45c0.83,0.36,1.59,0.85,2.27,1.44c0.97,0.88,1.75,1.08,2.97,1.57c0.33-0.05,0.66-0.08,0.99-0.08
			c0.42,0,0.68,0,1.11,0.04c1,0.11,1.5,0.49,2.39,0.95c0.44,0.23,0.85,0.53,1.22,0.87c0.42,0.34,0.56,0.62,0.97,0.95
			c0.46,0.4,1,0.7,1.57,0.91l2.85,0.84l3.01,1.48l1.32,0.62l1.26-0.49l0.5-1.26l-0.74-1.53l1.57,0.42l1.78,0.58l1.57-0.5l0.16-1.73
			l0.5,0.42l0.58,1.68l0.37,1.01c0.43,0.14,0.8,0.44,1.03,0.84c0.19,0.35,0.35,0.7,0.5,1.07c0.3,0.51,0.68,0.97,1.11,1.36
			c0.39,0.42,0.91,0.54,0.99,1.11c0.06,0.2,0.09,0.41,0.08,0.62l-0.84,1.07l-0.74,0.66h-1.86l-1.86-0.04l-2.35-0.33l-0.62,0.84
			l-0.49,1.9l-0.12,0.42l1.4,1.57l1.54,1.36c0.3,0.66,0.78,1.22,1.38,1.61c0.36,0.24,0.68,0.21,0.95,0.53
			c0.14,0.2,0.21,0.45,0.17,0.69l-0.38,0.55l-1.07,0.08l-0.62-0.08l-1.22-1.49l-2.06-1.57l-1.94-1.28l-1.49-0.08l0.7,0.91l1.26,1.26
			l1.16,0.91l0.95,0.33l0.42,0.5l-0.62,0.42l-0.95,0.54l-0.66,0.08l-0.74-0.49c-0.42-0.33-0.57-0.62-0.99-0.95
			c-0.72-0.57-1.17-0.84-1.9-1.4c-1.11-0.84-1.92-1.14-2.81-2.23c-0.34-0.38-0.65-0.79-0.91-1.24l-0.49-0.25l-0.37-0.42l-0.42-1.53
			l-2.06-0.66l-2.1-2.07l-1.68-2.3l-1.59-0.71l-1.44,0.08H227.97z"/>
		<path class="st3" d="M164.41,34.08c-0.5-1.3,0.2-3.06,1.59-3.2c0.72-0.08,1.1,0.42,1.81,0.33c0.79-0.13,0.84-1,1.57-1.32
			c0.8-0.35,1.36,0.08,2.23,0c1.18-0.11,1.8-0.68,2.97-0.58c1.17,0.1,1.62,0.78,2.73,1.07c0.84,0.23,1.39,0.06,2.23,0.33
			c1.4,0.45,1.83,1.78,3.3,1.82c1.11,0.03,1.68-0.54,2.81-0.58c2.31-0.08,2.24,0.49,3.3,1.4c0.74,0.64,0.73,1.45,1.55,2
			c2.32,1.55,6.45-1.62,5.72-4.31l0.42-1.57l-0.99-0.58l-0.61-0.42l-0.13-2.05l-0.33-1.4l-0.42-2.06l0.17-1.16l0.15-0.96l0.23-1.26
			l-0.13-0.84l0.69-1.07l0.05-1.24l1.16-1.81l4.71-1.4l4.79,1.48l1.48,4.06l0.66,1.32l-0.42,2.31l-0.61,1.17l-0.21,0.81l-1.08,0.99
			l-0.66,0.91l0.91,1.15l0.42,2.15l3.47,1.65l5.94,1.48l2.06,0.69c0.49-0.09,0.99-0.13,1.49-0.11c1.86-0.11,2.94,0.24,4.7,0.91
			c1.33,0.5,1.85,1.33,3.22,1.73s2.25,0,3.63,0.33c1.15,0.26,1.75,0.59,2.89,0.91c1.4,0.39,2.34,0.16,3.63,0.84
			c0.96,0.49,1.24,1.15,2.15,1.73c1.5,1.02,3.24,1.62,5.05,1.74l0.24,1.56c-1.21,0.07-2.42,0.07-3.63,0c-1.62-0.07-2.59,0-4.13-0.49
			c-1.54-0.49-2.08-1.78-3.71-2.07c-0.84-0.15-1.87-0.87-2.23-0.08c-0.4,0.84,1.21,0.84,1.98,1.4c0.88,0.63,1.75,0.53,2.39,1.4
			c0.35,0.48,0.71,0.84,0.58,1.4c-0.24,1.09-1.64-0.59-2.72-0.84c-1.43-0.31-2.41,0.16-3.71-0.5c-1.31-0.65-1.6-4.26-2.44-3
			c-0.54,0.68-0.55,1.64-0.03,2.34l0.27,3.37h3.12l1.82,0.74l2.48-0.08l2.64-0.74c1.13,0.88,1.99,1.09,3.37,1.4
			c1.2,0.27,2.04,0.7,3.14,0.16c0.25-0.09,0.48-0.22,0.69-0.38l1.68,0.79l2.56,1.07l0.91,0.33l-2.56,0.74h-2.94
			c-0.7,0.1-1.41,0.07-2.1-0.08c-0.8-0.13-1.17-0.66-1.98-0.66c-1.13,0-2.71-0.14-2.73,0.99c0,0.77,0.63,1.05,1.19,1.57
			c0.81,0.75,1.61,0.69,2.44,1.4c0.99,0.84,1.63,1.32,2.23,2.48l-1.48-0.42l-2.56-0.66l-3.84-0.97l-3.47-0.33l-3.73-1.91l-4.05-1.4
			l-2.31,0.24l-0.99,0.5l-2.89,0.5l6.94,5.05l-16.68,1.48l-14.36-6.27l-3.13-7.11l-3.63,5.47l-5.53,0.33l-1.26-0.33l-2.97-0.16
			l-2.1-0.56l-2.68,0.06l-1.9-0.25l-1.77-1.01l-1.37-0.4l-2.31-0.84l-0.5-0.5l0.28-1.68l-0.28-1.62l-1.68-0.69l0.63-2.61l0.33-3.37
			l0.1-1.6l-0.25-0.9l0.42,0.31H164.41z"/>
		<g>
			<defs>
				<path id="SVGID_1_" d="M164.41,34.08c-0.5-1.3,0.2-3.06,1.59-3.2c0.72-0.08,1.1,0.42,1.81,0.33c0.79-0.13,0.84-1,1.57-1.32
					c0.8-0.35,1.36,0.08,2.23,0c1.18-0.11,1.8-0.68,2.97-0.58c1.17,0.1,1.62,0.78,2.73,1.07c0.84,0.23,1.39,0.06,2.23,0.33
					c1.4,0.45,1.83,1.78,3.3,1.82c1.11,0.03,1.68-0.54,2.81-0.58c2.31-0.08,2.24,0.49,3.3,1.4c0.74,0.64,0.73,1.45,1.55,2
					c2.32,1.55,6.45-1.62,5.72-4.31l0.42-1.57l-0.99-0.58l-0.61-0.42l-0.13-2.05l-0.33-1.4l-0.42-2.06l0.17-1.16l0.15-0.96
					l0.23-1.26l-0.13-0.84l0.69-1.07l0.05-1.24l1.16-1.81l4.71-1.4l4.79,1.48l1.48,4.06l0.66,1.32l-0.42,2.31l-0.61,1.17l-0.21,0.81
					l-1.08,0.99l-0.66,0.91l0.91,1.15l0.42,2.15l3.47,1.65l5.94,1.48l2.06,0.69c0.49-0.09,0.99-0.13,1.49-0.11
					c1.86-0.11,2.94,0.24,4.7,0.91c1.33,0.5,1.85,1.33,3.22,1.73s2.25,0,3.63,0.33c1.15,0.26,1.75,0.59,2.89,0.91
					c1.4,0.39,2.34,0.16,3.63,0.84c0.96,0.49,1.24,1.15,2.15,1.73c1.5,1.02,3.24,1.62,5.05,1.74l0.24,1.56
					c-1.21,0.07-2.42,0.07-3.63,0c-1.62-0.07-2.59,0-4.13-0.49c-1.54-0.49-2.08-1.78-3.71-2.07c-0.84-0.15-1.87-0.87-2.23-0.08
					c-0.4,0.84,1.21,0.84,1.98,1.4c0.88,0.63,1.75,0.53,2.39,1.4c0.35,0.48,0.71,0.84,0.58,1.4c-0.24,1.09-1.64-0.59-2.72-0.84
					c-1.43-0.31-2.41,0.16-3.71-0.5c-1.31-0.65-1.6-4.26-2.44-3c-0.54,0.68-0.55,1.64-0.03,2.34l0.27,3.37h3.12l1.82,0.74l2.48-0.08
					l2.64-0.74c1.13,0.88,1.99,1.09,3.37,1.4c1.2,0.27,2.04,0.7,3.14,0.16c0.25-0.09,0.48-0.22,0.69-0.38l1.68,0.79l2.56,1.07
					l0.91,0.33l-2.56,0.74h-2.94c-0.7,0.1-1.41,0.07-2.1-0.08c-0.8-0.13-1.17-0.66-1.98-0.66c-1.13,0-2.71-0.14-2.73,0.99
					c0,0.77,0.63,1.05,1.19,1.57c0.81,0.75,1.61,0.69,2.44,1.4c0.99,0.84,1.63,1.32,2.23,2.48l-1.48-0.42l-2.56-0.66l-3.84-0.97
					l-3.47-0.33l-3.73-1.91l-4.05-1.4l-2.31,0.24l-0.99,0.5l-2.89,0.5l6.94,5.05l-16.68,1.48l-14.36-6.27l-3.13-7.11l-3.63,5.47
					l-5.53,0.33l-1.26-0.33l-2.97-0.16l-2.1-0.56l-2.68,0.06l-1.9-0.25l-1.77-1.01l-1.37-0.4l-2.31-0.84l-0.5-0.5l0.28-1.68
					l-0.28-1.62l-1.68-0.69l0.63-2.61l0.33-3.37l0.1-1.6l-0.25-0.9l0.42,0.31H164.41z"/>
			</defs>
			<clipPath id="SVGID_2_">
				<use xlink:href="#SVGID_1_"  style="overflow:visible;"/>
			</clipPath>
			<g class="st4">
				<polygon class="st5" points="222.79,48.05 222.66,45.06 222.59,39.56 224.29,39.63 225.85,39.97 226.46,42.35 226.87,46.28 
					225.85,46.9 224.49,46.96 224.22,47.64 223.41,48.18 222.79,48.05 				"/>
				<polygon class="st5" points="218.04,49.74 217.37,42.62 217.57,38.75 219.13,38.75 221.44,38.48 222.52,38.21 222.52,46.01 
					222.18,43.03 221.71,43.03 221.44,49.27 219.54,49.74 218.04,49.74 				"/>
				<polygon class="st5" points="205.69,48.93 204.6,48.52 204.67,44.39 205.35,39.09 207.52,39.29 206.57,49.27 205.69,48.93 				
					"/>
				<polygon class="st5" points="208.4,39.36 211.86,39.22 212.2,50.29 210.24,50.02 210.17,48.18 209.49,47.64 209.02,48.73 
					208.81,49.68 208,49.54 208.4,39.36 				"/>
				<polygon class="st5" points="213.36,50.35 213.5,46.49 213.22,42.01 213.22,38.95 216.34,38.75 216.55,50.22 215.4,50.63 
					213.83,50.76 213.36,50.35 				"/>
				<polygon class="st5" points="178.33,36.1 178.13,41.53 178.06,47.91 177.86,48.79 179.83,48.79 180.98,48.66 181.25,47.78 
					182.81,47.78 185.12,47.71 186.55,47.84 187.63,47.78 187.5,44.45 187.02,40.92 187.02,38.34 185.26,37.8 183.7,37.53 
					182.48,37.19 181.8,36.51 178.33,36.1 				"/>
				<polygon class="st5" points="173.18,48.32 172.36,48.18 172.09,43.43 172.57,36.3 172.7,35.08 174.46,35.83 177.05,36.24 
					176.77,46.83 176.43,49.2 175.41,49 174.4,48.86 173.18,48.32 				"/>
				<polygon class="st5" points="167.54,47.57 167.88,43.09 168.15,39.22 168.56,35.29 169.78,35.49 171.01,33.86 171.48,34.95 
					171.01,39.97 170.87,45.95 170.39,48.86 168.9,47.71 167.54,47.57 				"/>
				<polygon class="st5" points="166.25,47.3 166.8,43.64 166.93,39.63 167.41,34.61 167.61,33.59 164.97,33.93 164.22,33.93 
					164.01,34.95 163.74,39.36 163.54,42.08 164.89,43.09 165.1,44.18 164.83,46.42 166.25,47.3 				"/>
			</g>
		</g>
		<path class="st2" d="M203.39,85.73c-1.72,1.48-3.57,2.79-5.54,3.92c-3.57,8.45-5.71,17.54-8.56,26.29
			c-0.63,1.59-2.15,2.94-3.9,3.04c-0.99,0.46-2.25-0.33-3.17,0.4c-0.2,2.74,0.53,6.24-2.84,7.37c-0.09,0.08-0.15,0.18-0.17,0.29
			h0.63c1.82-0.59,3.57-1.32,5.42-1.81c0.79-1.49,2.52-1.29,3.57-2.28c0.74-0.12,1.45-0.37,2.1-0.73h-0.84
			c1.72-0.42,3.4-1.16,4.98-1.65v0.06c-1.08,0.52-2.2,0.97-3.34,1.35c2.01-0.03,3.73-1.19,5.65-1.68c-0.76,0.4-1.65,0.79-2.48,1.19
			h1.35c-0.63,0.46-1.59,0.4-2.21,0.95c1.26,0.1,2.41-0.56,3.63-0.79c2.52-0.33,4.63-1.92,7.07-2.21c-0.63,0.63-1.65,0.36-2.15,1.12
			c-1.26,0.63-2.71,0.84-4.03,1.42c-0.4,0.23-0.93,0.3-1.19,0.69l0.16,0.16l6.34-1.75c-1.91,1.09-4.36,1.09-6.21,2.15
			c1.85-0.13,3.6-0.93,5.47-1.19v0.16c-3.23,0.5-5.47,2.78-8.72,3.23c-5.02,1.46-10.6,1.59-15.52,3.27
			c-0.6,0.06-1.39,0.53-1.98,0.23c-0.07-0.28,0.05-0.58,0.29-0.73c-1.02-0.1-1.85-0.69-2.68-1.26c-0.06-0.63-0.23-1.52-0.26-2.15
			l-2.05-1.48l-3-0.33c-1.95-1.55-3.96-2.94-4.99-5.22l-1.45-5.47c0.5-0.63,1.39-0.46,2.08-0.4c0.89,0.4,1.42,1.39,2.15,2.05
			l3.79,2.15c1.85,0.16,3.67-0.03,5.32,0.5c0.4-0.42-0.4-1.03,0-1.59c3.27-7.07,6.21-14.26,10.04-21.1
			c1.02-1.95,1.22-4.26,1.98-6.34c0.42-0.61,0.84-1.22,1.26-1.84L203.39,85.73z M256.81,85.73c2.07,1.51,3.87,3.58,5.86,5.01
			c0.14,0.23,0.12,0.53-0.07,0.73c-1.32,1.32-1.85,3-2.94,4.43c0.84,0.63,2.35,0.23,2.78,1.35c-0.3,1.59,2.24,1.95,0.89,3.57
			c-0.23,0.41-0.37,0.88-0.4,1.35l-1.29,0.56c1.78,3.53-1.38,6.41-2.52,9.41c-0.46,0.99-1.52,1.12-2.38,1.59
			c-0.69-0.03-0.76-0.76-1.03-1.26c0.03-2.35,0.93-4.56,0.5-6.9c0-2.25-0.23-4.43-1.06-6.34c0.07-0.33-0.13-0.8,0.16-1.03
			l-0.69-0.23c-2.65-5.95-8.6-9.45-14.05-12.25L256.81,85.73z"/>
		<path class="st2" d="M189.44,85.73c3.96-5.97,7.15-12.5,12.93-17.34c-0.16-1.02-1.16-1.72-1.52-2.68
			c-1.16-1.82-2.08-3.7-3.17-5.55c-1.26,1.03-1.95,2.58-2.77,3.96c-1.19-4.29-2.68-8.61-3.47-13.17c-0.17-1.52-0.42-3.2-0.1-4.75
			c-0.4-0.16-0.76,0.23-1.09,0.5c-1.52,1.52-1.55,4.26-4.06,4.75c-2.1,0.13-4.43,0.3-5.94-1.35c-1.78,0.4-3.37-0.27-4.82-0.95
			c-2.18,0.46-4.69,1.09-6.34-1.19c-1.45,0.4-2.84-0.27-4.03-0.96c-0.37-0.26-0.33-0.66-0.33-1.09c0.73-0.03,1.09,0.84,1.75,1.09
			c0.3,0.23,0.84,0.46,1.09,0.27c0.03-0.1-0.03-0.13-0.06-0.16c0.49-0.2,1.32,0.42,1.65-0.23c0.63-1.12,0.16-2.81,0.4-3.96
			c-0.13-0.13-0.03-0.33-0.23-0.4c-0.13,0.95-0.63,1.78-0.79,2.77h-0.16c-0.26-2.15,0.89-4.59,0.27-6.6
			c-0.23-1.12,0.36-2.31,0.4-3.57c0.12-0.17,0.32-0.26,0.53-0.23c0.73,0.96,0,2.21,0.33,3.34h0.16c0.04-0.92,0.2-1.83,0.46-2.7
			l0.33,0.33c-0.33,2.41,0.03,5.02-0.63,7.37c-0.1,1.02,0.2,2.15-0.26,2.77l-0.23-0.23c-0.27,0.57-0.43,1.19-0.46,1.82
			c1.12,1.16,2.74,1.82,4.43,1.29c-0.42-0.36-1.09-0.33-1.42-0.79c0.88-0.14,1.77,0.12,2.44,0.69c0.15,0.06,0.32-0.02,0.38-0.17
			c0,0,0-0.01,0-0.01v-0.05c-0.56-2.9,1.12-5.65,0.1-8.25c0-1.32,0.29-2.52,0.4-3.79c-0.13-0.13-0.26-0.29-0.5-0.23l-0.4,0.46
			c-0.3,1.32,0.36,2.81-0.53,3.83c-0.23,0.4,0,0.84,0.23,1.19c-0.4,1.52,0.17,3.14-0.49,4.59c-0.03,0.29,0.13,0.72-0.13,0.95
			c-0.76,0.13-0.2-0.84-0.66-1.12c0.13-1.26-0.27-2.74,0.33-3.79c-0.1-0.37,0.23-0.96-0.33-1.03c0.03-1.95,0.89-3.6,0.8-5.47
			c0.42-0.63,1.29-0.42,1.91-0.23c0.63,0.89,0.16,1.85,0.07,2.84c0.1,1.59,0.23,3.37-0.23,4.85c-0.3,1.32,0.33,2.78-0.23,4.03
			c-0.3,1.16,0.69,1.55,1.52,1.82c1.22,0.26,2.84,0.89,4.03,0.1c0.4-3.04,0.17-6.6,0.8-9.84c-0.26-0.93,0.56-2.21-0.4-2.94
			c0.09-0.26,0.14-0.52,0.16-0.79c-1.35-0.4-3.34-0.1-4.46-0.84c1.12,0.16,2.54,0.69,3.73,0.16c0.33,0.4,0.8,0.13,1.12-0.1
			c0.03,0.5-0.5,1.09,0.16,1.42c-0.29,0.53,0.46,0.59,0.69,0.89l0.63-0.79c0,0.92,1.29,0.49,1.46,1.35
			c0.13-0.13,0.23-0.33,0.46-0.26c0.46,0.72,0.1,1.75,0.33,2.52c0.33,0.65,0.41,1.4,0.23,2.1c0.27,1.32-0.2,3.17,0.84,4.26v0.4
			c-0.53,0.13-0.66-0.56-1.02-0.69c-0.27,0.2-0.3,0.79-0.8,0.63c-0.03-0.56,0.13-0.99-0.4-1.29c0.03-2.28,0.33-4.82-0.23-6.97
			l-0.4-0.29c-0.89,1.19-0.23,3.3-0.89,4.49c0.4,1.09-0.07,2.64,0.4,3.57l-0.23,0.89c0.73,0.07,1.75,0.59,2.31-0.16
			c0.23,0,0.33,0.1,0.4,0.33l1.19,0.13c-0.03,0.13,0.13,0.2,0.23,0.16h0.23c0.07-0.53,0.26-1.29-0.16-1.75
			c0-1.33-0.16-2.66-0.46-3.96l-0.46,0.16c0.2-0.99-0.26-1.98-0.1-2.94c0.16,0.05,0.32-0.02,0.41-0.16
			c-0.03-0.33-0.23-0.59-0.16-0.96c0.79,0.03,1.45,0.89,2.25,0.46c-0.03-0.42-0.3-0.79-0.27-1.26c1.09-1.02,2.21,1.32,2.94-0.16
			c0.56-1.46-2.01-0.96-0.84-2.44c0.42-1.62,2.38-1.52,2.94-2.87c0.7-0.7,1.62-1.15,2.61-1.26c0.13-0.27,0.03-0.6,0.07-0.89
			c-0.27-0.69-1.16-0.33-1.26-1.09c-0.06-2.58-1.91-5.12-0.56-7.63c-0.33-0.99-0.4-2.08,0.33-2.9c0.03-1.82,0.98-3.5,2.52-4.46
			c1.22-0.5,2.52-0.79,3.83-0.84c0.95-0.13,2.1,0.5,3,0.06c0.16,0.13,0.59,0.03,0.56,0.4c0.84,0.42,1.72,1.02,2.52,1.12
			c-0.4,0.99,0.73,1.55,0.56,2.52c0.84,0.84-0.63,2.48,0.63,3c0.33,0.37,0.1,0.84,0,1.26c-0.46,1.38-0.84,2.81-1.82,3.96
			c-0.5,0.36-1.02,0.26-1.02,1.02c0.84,0.66,0.95,1.75,0.84,2.87c1.62-0.03,2.64,1.26,3.96,1.88c1.91,0.07,3.37,1.52,5.31,1.19
			c0.93,0.23,1.65,1.09,2.48,1.45c-0.95,0.6-2.21-0.26-3.04,0.69c-0.84-0.16-1.78-0.66-2.61-0.16c-0.27-0.46-0.8-0.1-1.09,0
			l-0.33,0.27c-0.33-0.23-0.59-0.96-1.12-0.5c-0.76-0.13-1.38-0.89-2.1-0.16c-0.42-0.18-0.9-0.15-1.29,0.1l-0.16-1.02
			c-0.96,0.4-1.65,1.59-2.84,1.48c-0.5,0.4-0.3,1.19-0.8,1.52c-1.19-0.1-2.1-0.79-3.4-0.63c-0.37,0.42,0.03,1.19-0.33,1.65
			l-0.16-1.52c-0.73,0.84-1.42-0.3-2.21-0.3c-0.14-0.28-0.33-0.52-0.56-0.73c-0.77,2-1.34,4.07-1.72,6.18
			c-0.13,2.44-1.29,5.51,0.42,7.63c1.29-0.89,2.38-1.95,3.63-2.77c-0.08-2.4,0.13-4.8,0.63-7.15c0.07,2.15-0.46,4.43-0.16,6.57
			c0.69-0.2,1.22-1.22,1.91-0.84l1.59,2.44c-1.12-0.03-1.12-1.45-1.82-2.15c-1.8,1.56-3.68,3.01-5.65,4.36
			c0.03,1.12,1.16,1.98,1.85,2.94c0.84,0.99,2.01,2.64,3.4,2.38c1.45-1.29,3.27-2.57,4.21-4.36c-0.26-0.33-0.69-0.33-1.02-0.46
			c0,0.36-0.2-1.19-0.17-1.98c-0.13-0.2-0.33-0.23-0.46-0.33c-0.03-0.06,0.03-0.1,0.07-0.16l0.4,0.16c0.66-2.84,0.63-5.97,0.96-8.95
			c-0.3-0.2-0.56-0.36-0.63-0.73c-0.03-1.15,1.52-1.22,1.65-2.38c0.13-0.17,0.35-0.26,0.56-0.23c0.56,1.72-2.57,1.39-1.42,3.1
			c0.91,0.16,1.85,0.02,2.68-0.4c0.23,0.33,0.99,0.23,0.73,0.93c-0.98-0.08-1.96-0.1-2.94-0.07c-0.69,0.33,0.3,0.59,0.07,1.02
			c0.42,0.33,0.23,0.99,0.16,1.42l-0.4,0.4c-0.46,1.88,0.76,4.39-1.02,5.71c-0.09,0.45-0.11,0.9-0.07,1.35l1.19,0.79
			c-0.36,0.42-1.02-0.56-1.19,0c0.63,0.37,1.19,0.84,1.98,0.84c0.23-0.23,0.16-0.73,0.07-1.03c-0.1-0.13-0.33-0.03-0.46-0.06
			c-0.13-2.38,0.84-4.66,0.63-6.97c-0.8-0.53,0.13-1.38,0-1.98c0.72,0.6,0.56-0.93,1.35-0.16c0.13-0.05,0.26-0.09,0.4-0.1
			c-0.84,0.99-0.42,2.52-0.66,3.67c-0.23,2.15-0.84,4.32-0.69,6.41c-0.03,0.4-0.69,0.29-0.5,0.79c1.35,0.63,2.97,1.16,4.36,0.5
			c0.33-0.4-0.03-0.73,0.1-1.19c-0.79-0.27-0.3-0.89-0.56-1.45c-0.46,0.36,0,1.55-0.73,1.35c-0.16-0.46,0.27-0.89,0.33-1.35
			c0.13-1.59-0.59-3.4,0.23-4.99c-0.03-0.53,0-1.06,0.1-1.58c0.27,0,0.33-0.23,0.4-0.46c-0.03-0.13,0.07-0.33-0.1-0.4h-0.24
			c0.23-0.69-0.63-0.6-0.79-1.03c0.96,0.37,1.95-0.36,2.94-0.16c0.1,0.3-0.2,0.27-0.33,0.4c-0.23,0.03-0.66-0.29-0.69,0.16
			c-0.23,3.79-0.23,7.03-0.33,10.83c1.66,0.58,3.39,0.91,5.15,0.96c0.27-0.2,0.69-0.1,0.8-0.46c-0.03-3.3-0.56-6.41-0.46-9.74
			c-1.06-0.07-0.3-1.12-0.96-1.59c0.23-0.16,0.84,0.03,0.69-0.49c0.46-0.17,0.66-0.96,1.12-0.69c0.03,3.37-0.07,7.1,0.07,10.43
			c0.4,0.27,1.19,0.13,1.45,0.73l3.23-0.56c-0.84,1.29-2.34,1.12-3.73,1.12c0.17-0.63-0.66-0.49-0.69-0.95h-0.1
			c0.16,0.53-0.42,2.05,0.79,1.75c1.29-0.33,2.97,0.07,3.9-0.96c0.36-0.2,0.89-0.23,1.09-0.63c0.33-0.79-0.76-2.44,0.66-2.48
			c0.03-0.2,0.26-0.26,0.46-0.23c-0.03,0.6-1.35,0.53-0.73,1.29c0.42-0.05,0.81-0.22,1.12-0.5c0.02-2.17-0.14-4.34-0.48-6.49
			c-0.33-0.4-0.96-0.72-0.73-1.32c-0.42,0.23-0.13,0.93-0.23,1.42c0.36,0.1,0.4,0.5,0.5,0.79c-0.2,1.59,0.36,3.21-0.17,4.66
			c-0.38-0.03-0.67-0.36-0.64-0.74c0-0.03,0.01-0.07,0.01-0.1c-0.15-2.27-0.13-4.55,0.08-6.81c-0.16-0.59-0.23-1.39-0.96-1.59
			c-1.29-0.95-2.44,0.8-3.86,0c0-0.07-0.04-0.13-0.1-0.16c0.99,0.36,1.29-1.09,2.31-0.56c0.63-0.53,1.68-0.07,2.38,0.23
			c0.25,0.35,0.41,0.76,0.46,1.19c1.02,0.03,1.45,0.76,2.08,1.42c0.36-0.14,0.76-0.1,1.09,0.1c0.2,0.59,0.84,0.46,1.29,0.69
			c0.12,1.73,0.33,3.45,0.63,5.15c1.12,0.4,2.57-0.17,3.57,0.79c1.26,0.3,2.57,0.13,3.79,0.1c-0.93,0.66-2.28,0.63-3.23,1.35
			c-0.1-0.26-0.27-0.56-0.1-0.79c-1.09-0.53-2.47-1.29-3.63-0.66c0.2,1.02-0.99,1.09-1.52,1.52c-0.31,0.74-0.74,1.44-1.26,2.05
			c2.31,0.78,4.52,1.84,6.57,3.17c3.07,0.56,6.2,0.73,9.11,1.98c0.92,0.01,1.82,0.26,2.61,0.73c0.1,0.27-0.16,0.3-0.29,0.4
			c-3.7-0.92-7.23-2.41-11.19-2.38c-0.84-0.2-1.39-0.16-1.98-0.84c-1.75-1.08-3.69-1.8-5.71-2.15c-0.76,0.69-1.82,0.23-2.61-0.1
			c-1.06,0.5-2.38,0.37-3.47,0.73c3.57,4.06,9.38,3.14,13.94,5.09c4.98,1.32,9.64,3.5,14.26,5.78c2.47,0.96,4.87,2.12,7.15,3.47
			c-1.26,0.56-2.52-0.3-3.9-0.23c-2.61-0.56-4.59,0.2-7.13-0.63c-2.58-2.68-5.85-3.76-9.41-4.13c-3.3-0.84-6.47-2.08-9.91-2.61
			c2.41,3.07,6.11,4.92,9.41,6.73c1.88,0.72,3.9,1.09,5.81,1.75c-0.33,0.53-1.12,0.63-1.75,0.69c-1.85-0.33-4.03,0.46-5.78-0.13
			l-0.17,0.13c4.46,3.79,8.78,7.95,13.15,11.75c3.63,2.01,7.33,3.93,11.03,5.78c0.55,0.29,1.08,0.62,1.58,0.99h-16.23
			c-0.66-0.34-1.32-0.67-1.96-1c-2.34-0.59-4.36-2.15-6.11-4.06c-5.89-1.06-10.8-4.63-16.41-6.41l-1.88,0.8
			c-3.55,3.55-7,7.45-10.81,10.67L189.44,85.73z"/>
		<path class="st3" d="M204.41,14.37c0.36,0.27,0.33,0.66,0.33,1.09c-0.42,0.84-2.18,0.89-1.52,2.21l-0.63,1.12
			c-0.46-0.52-1.12-0.83-1.82-0.84c-0.95,0.2-1.65,0.95-2.77,0.79c0,0.56-0.63,0.3-0.96,0.46c-0.07-0.93-1.09-1.26-1.82-1.52
			c0.42-0.99,0.3-2.48,1.59-2.91c0.79,0.56,1.79,0.71,2.71,0.4c0.89-1.55,3.53-2.28,4.89-0.79L204.41,14.37z"/>
		<path class="st2" d="M198.81,17.21c0.1,0.23-0.16,0.4-0.33,0.46c-0.17,0-0.4,0.06-0.53-0.07
			C197.82,17.01,198.58,17.48,198.81,17.21z"/>
		<path class="st3" d="M196.11,18.47c-0.53-0.23-0.93,0.36-1.32,0.66c-0.09-0.37,0.07-0.76,0.4-0.96
			C195.58,18.04,195.81,18.37,196.11,18.47z"/>
		<path class="st3" d="M202.21,19.36l-0.17,0.3c-0.58-0.33-1.22-0.54-1.88-0.63C200.7,17.91,201.62,19.09,202.21,19.36z"/>
		<path class="st3" d="M194.79,20.05c-0.17-0.1-0.07-0.3-0.1-0.46c0.35-0.2,0.73-0.33,1.12-0.4l-1.02,0.84V20.05z"/>
		<polygon class="st3" points="199.14,19.76 199.44,19.36 200.46,19.59 199.14,19.76 		"/>
		<path class="st3" d="M207.46,20.05c-0.43,0.43-0.71,0.99-0.8,1.59c-0.12-0.05-0.26-0.08-0.4-0.07c0.27-0.46,0.03-1.52,0.8-1.91
			C207.33,19.61,207.53,19.75,207.46,20.05z"/>
		<path class="st3" d="M198.18,21.8c0.16-0.3,0.2-1.09,0.84-0.79c0.37-0.07,0.53,0.36,0.8,0.56c0.95,0.3,1.26-0.42,1.91-0.84
			l1.59-0.1c-0.2,0.5,0.03,1.39-0.73,1.42c-0.3,0.36-0.53,0.99-0.3,1.35c0,0.4-0.4,0.69-0.16,1.02c0.76-0.16,0.42-1.29,1.42-1.09
			c-0.03,0.99-0.5,1.78-0.56,2.77c0.63,0.23,0.16,0.84,0.1,1.19c-0.33,0.63-0.37-0.1-0.73,0.07c-0.79,0.84-1.72,1.52-2.77,1.42
			c-0.42,0.76-1.16,0.56-1.75,0.8c-0.93,0.03-1.68-0.56-2.38-1.03c0.1-0.84-0.95-2.24,0.33-2.94c0.63,0.36,1.33,0.59,2.05,0.66
			c0.59-0.53,0.84-0.07,1.42,0.13c0.11-0.57-0.06-1.16-0.46-1.59c-0.11,0.33-0.36,0.6-0.69,0.72c-0.93-0.13-1.98,0-2.68-0.73
			c-0.27,0.33-0.07,0.84-0.56,1.06c-0.29-1.48-0.84-3.27-0.16-4.75c0.42-0.16,0.84,0.4,1.29,0.23c-0.27,0.52-0.45,1.08-0.56,1.65
			c0.66,0.16,1.15,1.29,2.04,0.89c0.33-0.8,2.54-0.3,1.29-1.59c-0.2,1.15-1.32-0.33-1.75,0.79c-0.44,0.07-0.88-0.13-1.12-0.5
			c0.13-0.69,0.76-1.35,0.4-2.04c-0.16,0.03-0.33,0.23-0.56,0.16c-0.03-0.36,0.03-0.76,0.4-0.89c0.2,0.99,0.92-0.33,1.45,0
			c0.33,0.56-0.79,2.21,0.63,1.98L198.18,21.8z"/>
		<path class="st3" d="M201.19,20.32c-0.13,0.23-0.4,0.56-0.72,0.53L200.4,20C200.7,19.93,201.01,20.06,201.19,20.32z"/>
		<path class="st3" d="M199.67,20.71c-0.13-0.1-0.29-0.1-0.4-0.27l0.26-0.3C199.57,20.25,199.74,20.48,199.67,20.71z"/>
		<path class="st3" d="M195.01,20.61c-0.16-0.06-0.29-0.06-0.23-0.29l0.29,0.06L195.01,20.61z"/>
		<path class="st3" d="M206.41,21.96c0.1,0.4,0.23,0.99-0.23,1.26C206.01,22.8,206.1,22.31,206.41,21.96z"/>
		<path class="st3" d="M207.3,22.3c0.15,0.43,0.06,0.91-0.23,1.26c-0.17,0.2-0.23-0.07-0.4-0.07c0.28-0.33,0.44-0.75,0.46-1.19
			L207.3,22.3z"/>
		<path class="st3" d="M206.57,24.34c-0.16,0.2-0.2,0.56-0.56,0.56c0-0.39,0.09-0.77,0.27-1.12
			C206.44,23.95,206.87,24.05,206.57,24.34L206.57,24.34z"/>
		<path class="st2" d="M197.22,24.97v0.16h-0.16v-0.23C197.13,24.87,197.2,24.94,197.22,24.97z"/>
		<path class="st3" d="M205.78,30.12c-1.26,1.45-2.77,2.81-4.75,2.48c-0.57,0.2-1.15,0.33-1.75,0.4c-0.27-0.84-0.07-1.65-0.4-2.48
			c-0.3,0.23-0.4,0.8-0.46,1.29l-0.07,0.69l-1.51-0.69c-0.13-0.55-0.13-1.13,0-1.68c0.8,0,1.68,0.1,2.44-0.4l0.79-0.07
			c1.42-0.69,3.14-0.79,4.23-2.08c0.66,0.13,0.53-1.12,1.19-0.63C206.18,27.88,205.82,29.03,205.78,30.12L205.78,30.12z"/>
		<path class="st2" d="M199.54,27.45c-0.24-0.07-0.39-0.31-0.33-0.56C199.44,26.96,199.58,27.2,199.54,27.45z"/>
		<path class="st2" d="M197.79,28.07c0.07,0.2-0.2,0.33-0.33,0.42c-0.49,0.16-0.56-0.46-0.79-0.63c0.38,0.04,0.76,0.12,1.12,0.23
			V28.07z"/>
		<path class="st2" d="M171.7,33.79c-1.49,0.76-2.81-0.13-4.36-0.16c0.07-0.27,0.46-0.46,0.73-0.56c0.84,0.53,1.95,0.59,2.94,0.56
			c0.26,0.16,0.49-0.33,0.63-0.56c-0.06-0.29,0.03-0.59,0.23-0.8C172.17,32.76,172,33.26,171.7,33.79L171.7,33.79z"/>
		<path class="st2" d="M164.34,32.67c0,0.42-0.1,1.19,0.63,1.12c0,0.17-0.29,0.37-0.56,0.3c-0.29,0.09-0.6-0.07-0.69-0.36
			c0,0,0-0.03,0-0.04C163.61,33.24,163.88,32.78,164.34,32.67C164.34,32.67,164.34,32.67,164.34,32.67L164.34,32.67z"/>
		<path class="st2" d="M176.39,34.58c-0.4,0.36-0.93-0.23-1.35,0.29c-0.69-0.42-1.58-0.4-2.21-0.95c0.42-0.4,1.32,0.03,1.98,0
			C175.3,34.21,175.84,34.43,176.39,34.58z"/>
		<path class="st2" d="M166.25,34.02l-0.1,1.09c-0.2,0.2-0.46-0.23-0.56-0.4c0.1-0.4-0.2-0.76,0.33-0.93
			C166.09,33.69,166.22,33.91,166.25,34.02z"/>
		<path class="st2" d="M211.89,34.65c-0.13,0.29-0.63,0.42-1.03,0.46c-0.16-0.29,0.27-0.4,0.4-0.63
			C211.52,34.42,211.68,34.58,211.89,34.65z"/>
		<path class="st2" d="M164.27,34.65c0.3,0.49-0.33,1.12,0.46,1.35c-0.36,1.77-0.52,3.58-0.46,5.38c0.17,0.07,0.3,0.23,0.53,0.16
			c0.37-1.82,0.56-3.68,0.56-5.54c0.66-0.16,0.37,0.63,0.56,0.96l-0.07,1.88c-0.59,1.85,0.16,3.96-0.66,5.72
			c0.16,0.46-0.23,0.76-0.4,1.02l-0.07-2.38c-0.49-0.3-1.22-0.27-1.52-0.96c-0.03-2.62,0.81-4.98,0.73-7.54
			C164.07,34.78,164.14,34.65,164.27,34.65z"/>
		<path class="st2" d="M209.97,36.07c-0.11,0.3,0.04,0.64,0.34,0.75c0.07,0.03,0.15,0.04,0.22,0.04c0.26-0.29,0.36,0.27,0.63,0.17
			c0.45-0.03,0.91-0.01,1.35,0.06c-0.84,1.06-2.52-0.4-3.57,0.66c-0.3,0.07-0.53-0.13-0.79-0.16c0.53-0.36,1.32-0.89,1.58-1.52
			H209.97z"/>
		<path class="st2" d="M217.03,36.56c0.1,0.36-0.16,0.46-0.4,0.63c-1.16-0.27-2.01,0.16-3.17-0.1c0.23-0.69,1.09,0.03,1.52-0.29
			C215.61,36.37,216.37,35.74,217.03,36.56z"/>
		<path class="st2" d="M180.75,37.27c-0.2,0.46-0.69,0.66-0.1,1.12c-0.23,0.49,0.26,1.55-0.63,1.48l-0.17-0.13
			c-0.11,0.26,0.01,0.57,0.28,0.68c0,0,0,0,0,0h0.05c0.1,1.09,0.2,2.64-0.07,3.67c-0.53-0.27-0.36-1.09-0.79-1.52
			c-0.2,0.76-0.34,1.53-0.4,2.31c-0.07,0.4,0.33,0.56,0.63,0.69l-0.1,2.48c-0.89-0.27-0.23-1.42-0.4-2.15l-0.53-0.64
			c-0.2-2.44,0.3-4.98,0.46-7.46c0.23-0.5-0.89-1.02,0.07-1.19c0.59,0.13,1.29,0.23,1.68,0.63V37.27z"/>
		<polygon class="st2" points="199.14,37.09 199.21,37.09 199.21,37.49 199.14,37.49 199.14,37.09 		"/>
		<path class="st3" d="M191.84,37.88l-0.23,0.79c-0.4,0.04-0.78-0.17-0.96-0.53c0.23-0.39,0.73-0.52,1.13-0.3L191.84,37.88z"/>
		<path class="st2" d="M221.56,38.61c-0.89,0.79,0.06,1.91-0.23,2.84c-0.17,1.85,0.03,3.79-0.5,5.47l-0.16-0.23l-0.63-6.97
			c-0.27-0.26-0.69-0.36-0.63-0.79c0.3-0.42,0.69,0.13,1.03-0.16c0.33-0.13,0.84-0.69,1.12-0.16V38.61z"/>
		<path class="st3" d="M193.05,39.56c-0.4,0.07-0.76-0.42-1.12-0.63l0.16-0.4C192.56,38.71,192.91,39.09,193.05,39.56z"/>
		<path class="st2" d="M219.18,39.47c-0.29,3.07,0.23,6.04-0.1,9.21c-0.99-1.42-0.96-3.44-1.26-5.25c0-1.39-0.37-3.04,0-4.49
			C218.32,38.21,219.21,38.77,219.18,39.47L219.18,39.47z"/>
		<path class="st2" d="M214.59,38.67c-0.13,0.53-0.69,0.8-0.26,1.35c0,2.97-0.26,5.78-0.07,8.65c-0.59-0.1-0.26-0.96-0.96-0.89
			c-0.1-1.75,0.2-4.03-0.46-5.62c0.07-1.22,0.27-2.38-0.33-3.4C213.11,38.51,213.9,38.94,214.59,38.67z"/>
		<path class="st5" d="M225.29,39.96c0.28,1.03,0.38,2.11,0.29,3.17l0.33,0.23l0.07-0.07c0.1,0.73,0.49,1.65,0.16,2.44
			c-0.1,0.3,0.33,0.76-0.16,0.84l-0.55-0.05c-0.13-2.28-0.36-4.32-0.4-6.57L225.29,39.96z"/>
		<path class="st3" d="M226.62,40.42c0.4,1.82,0.84,3.6,0.89,5.55c0.3,0.19,0.46,0.54,0.4,0.89c-1.06,0.46-2.28,1.06-3.5,0.69v-0.46
			c0.84-0.27,2.08,0.3,2.61-0.73c-0.16-1.88-0.23-4-0.53-5.94L226.62,40.42z"/>
		<path class="st2" d="M215.12,41.38c0.13,1.24,0.13,2.49,0,3.73l-0.23,0.16l-0.16-0.27c0.1-1.19-0.2-2.57,0.27-3.63L215.12,41.38z"
			/>
		<path class="st3" d="M164.73,42.57c-0.29,0.1-0.63-0.13-0.84-0.4C164.03,41.71,165.07,41.98,164.73,42.57z"/>
		<path class="st3" d="M182.01,47.49h-0.46v-2.08C181.44,46.27,182.33,46.53,182.01,47.49z"/>
		<path class="st3" d="M224.96,46.6h-0.33l0.16-1.19C224.92,45.79,224.98,46.2,224.96,46.6z"/>
		<path class="st2" d="M215.62,46.6v4.29c-0.13,0.2-0.46,0-0.63-0.17c0.2-1.58,0.22-3.17,0.06-4.75
			C215.52,45.87,215.42,46.39,215.62,46.6L215.62,46.6z"/>
		<path class="st2" d="M247.55,48.28c1.29,0.23,2.52,0.79,3.73,0.95v0.13c-2.16,0.88-4.54,1.11-6.83,0.66
			c-0.03-0.13,0.13-0.17,0.16-0.27c1.45,0.06,3.27,0,4.69-0.53c-1.15-0.63-2.52-0.99-3.73-1.68l-2.15,0.1
			c0.3-0.42,0.84-0.49,1.35-0.56C245.8,47.26,246.59,47.99,247.55,48.28L247.55,48.28z"/>
		<path class="st3" d="M187.55,47.89c-0.03,0.42-0.59,0.56-0.95,0.69c-1.55,0.56-3.63,0.4-5.15-0.13v-0.5c1.06,0,2.21,0.73,3.17,0
			C185.46,48.79,186.53,47.79,187.55,47.89L187.55,47.89z"/>
		<path class="st2" d="M179.79,48.35c0,0.13,0.13,0.27,0.23,0.23h0.49c-0.02,0.06,0.01,0.13,0.07,0.16
			c-0.45,0.28-0.99,0.4-1.52,0.33c-0.4-0.53-0.96,0-1.48-0.23c-0.2-0.23-0.46-0.4-0.56-0.66c0.42-0.23,1.16,0.59,1.26-0.13
			C178.87,47.99,179.2,48.45,179.79,48.35L179.79,48.35z"/>
		<path class="st3" d="M198.1,49.24c-0.3,0.03-0.27-0.33-0.4-0.5C197.95,48.78,198.25,48.97,198.1,49.24z"/>
		<path class="st2" d="M207.77,49.47c-0.2,0.3-0.66,0.27-0.95,0.16l-0.07-0.49C207.17,49.01,207.45,49.37,207.77,49.47L207.77,49.47
			z"/>
		<path class="st2" d="M241.14,49.37c-0.76,0.53-1.82,0.26-2.48,0.95c0.13,0.53,0.79,0.99,0.16,1.52c-0.3,0-0.69-0.53-0.84-0.89
			c-1.29,0.13-1.98-1.45-3.27-1.09c0.42-0.36,1.22-0.33,1.75-0.33c0.84,0.69,1.68-0.42,2.61-0.4c0.63,0.23,1.45-0.27,2.08,0.23
			H241.14z"/>
		<path class="st2" d="M208.78,49.64c0,0.3-0.4,0.03-0.53,0.23v-0.33L208.78,49.64z"/>
		<path class="st2" d="M214.27,50.56c0.03,0.33-0.42,0.37-0.56,0.4c-0.93,0.15-1.88-0.1-2.61-0.69c0.53-0.46,1.09,0.23,1.65-0.23
			C213.22,50.29,213.74,50.46,214.27,50.56z"/>
		<polygon class="st2" points="248.4,54 248.34,53.73 248.4,53.73 248.4,54 		"/>
		<path class="st3" d="M259.27,88.37c-0.16,0-0.36,0.03-0.46-0.16l0.16-0.4C259.2,87.89,259.33,88.13,259.27,88.37z"/>
		<path class="st3" d="M257.52,98.27c0.16,0.42-0.36,0.33-0.53,0.5c-0.42-0.16-0.69,0.07-1.06-0.27v-0.4L257.52,98.27z"/>
		<path class="st3" d="M262.67,101.94c-0.1,0.2-0.33,0.28-0.54,0.2c-0.06-0.03-0.12-0.07-0.16-0.13l-0.23-0.63
			C262.14,101.31,262.44,101.71,262.67,101.94L262.67,101.94z"/>
		<path class="st3" d="M258.18,105.97c-0.13,0.2-0.16,0.36-0.4,0.4c-0.37-0.42-1.16-0.36-1.19-1.02l0.13-0.23L258.18,105.97z"/>
		<path class="st3" d="M260,105.42c0.2,0.59-0.4,0.89-0.73,1.29C259.27,106.18,259.54,105.68,260,105.42z"/>
		<path class="st3" d="M259.04,105.9c-0.08,0.34-0.28,0.64-0.56,0.84C257.98,106.56,258.71,105.84,259.04,105.9z"/>
		<path class="st3" d="M257.45,108.97c0.5,0.8-0.99,1.26-0.16,1.98c-0.1,0.58-0.34,1.12-0.69,1.59c-0.27,0.07-0.33-0.23-0.4-0.4
			C256.43,111.02,255.84,109.04,257.45,108.97z"/>
		<path class="st2" d="M222.59,110.26c-0.33,0.36-1.78-0.17-1.35,0.69c1.82,0.4,3.34,1.88,4.69,3.1c0.33-0.06,0.5,0.2,0.56,0.46
			c-2.74,0.13-2.38,3.73-4.92,4.29c-0.84,0.23-2.05,0.59-2.87,0c0.16,0.69-0.6,0.03-0.84,0.56c-0.1-0.4,0.33-0.46,0.56-0.56
			l-0.16-0.17c-1.46,0.8-3.04,1.46-4.76,1.26l-0.16,0.16l0.4,0.4c-0.1,0.2-0.42,0.27-0.29,0.56c0.33,0.76,1.09,0.23,1.59,0.16
			c1.26-0.23,2.52-1.68,3.86-0.56c2.21-0.06,4.89,1.55,6.9-0.16c1.85-0.79,3.83-0.03,5.22,1.19c1.35,2.08,3.4,4.21,5.89,4.69
			c-0.1-0.47-0.1-0.95,0-1.42l0.33-0.27c0.4,0.46-0.13,1.12,0.13,1.68c0.16,0.53,0.11,1.09-0.13,1.59c0.2,0.23,0.53,0.84,1.02,0.8
			c1.16,2.01,3.43,2.77,4.92,4.21h-0.59c-1.65-1.26-4-1.98-4.75-4.13c-1.32-0.1-0.46-2.1-1.82-2.04c-4.26,0.06-3.04-6.44-7.79-5.38
			c-1.62,0.27-3.37,1.52-4.88,0.13c-2.25,0.23-4.21-0.95-6.34-0.92c-1.16,0.66-2.58,1.15-3.9,0.92c-0.03-0.56-0.66-1.22,0-1.72
			l2.15-0.26c-0.06-0.33-0.59-0.89-0.16-1.32c1.03-0.86,1.65,0.92,2.78,0.29c1.15,0.37,1.65-0.76,2.77-0.69
			c0.56,0.13,1.12,0.3,1.65,0.46c1.39-1.02,1.49-2.77,2.78-3.79c-0.99-1.52-2.25-3-4.21-3c-0.41-0.1-0.75-0.36-0.96-0.73
			c0-0.33,0.33-0.56,0.56-0.72c0.76-0.23,1.45,0.13,2.15,0.27L222.59,110.26z"/>
		<path class="st2" d="M229.26,113.5v0.16c-1.88,0.46-2.97-0.99-4.29-1.82l0.16-0.26C226.32,112.56,227.74,113.22,229.26,113.5z"/>
		<path class="st3" d="M165.36,112.87v0.23l-2.04-0.63C163.98,112.44,165.07,112.11,165.36,112.87z"/>
		<path class="st3" d="M165.07,113.66c-0.46,0.2-0.84-0.23-1.29-0.33l0.1-0.23C164.3,113.17,164.97,113.2,165.07,113.66z"/>
		<path class="st2" d="M234.41,115.41v0.23c-0.59-1.12-2.08-0.53-2.7-1.59c-0.63-0.06-1.06-0.56-1.75-0.49l0.1-0.13
			C231.73,113.46,233.41,114.06,234.41,115.41L234.41,115.41z"/>
		<path class="st2" d="M251.68,118.81c-0.56-0.3-1.09-1.03-1.82-1.03v1.03c-0.5-0.56-1.22-0.56-1.91-0.63
			c-0.13,0.63,0.23,1.52,0,2.04c-0.1-0.27-0.07-0.63-0.4-0.79c-0.26,0.2-0.79,0.73-1.02,0.07l-0.4-0.53
			c-0.24,0.28-0.31,0.68-0.16,1.02c0.42,0.63,1.75,0.27,1.52,1.42c-0.73-0.16-1.85-0.2-2.25-1.12v-0.23
			c-0.26-0.13-0.59,0.13-0.84,0.33c-0.29,1.34,0.06,2.74,0.95,3.79c0.52,0.44,1.15,0.73,1.82,0.84l-0.23-0.84
			c0.8-0.2,1.06,1.06,1.75,0.84v-0.13c0.5,0.2,1.19,0.63,1.65,0.23l-0.16-0.33c1.22-0.49,2.08,1.35,3.33,0.5
			c0.13,0,0.3-0.07,0.4,0.07c0.03,0.29-0.33,0.33-0.46,0.46c-1.42,0.29-2.78-0.6-4.06,0c-0.69,0.03-1.59-0.76-2.05,0.1
			c0.2,0.99-0.33,1.68-0.79,2.38c1.19,0.8,1.98,1.85,2.94,2.94c-1.06-0.42-2.31-1.82-3.04-2.87c-0.5-0.42-0.89,0.2-1.42-0.23
			c0.46-0.53,1.68-0.2,1.75-1.19c0.69-2.18-2.08-0.6-2.21-2.31c-0.59-0.69-1.48-1.39-1.35-2.44c-0.62,0.15-1.28,0.02-1.78-0.37
			c-0.23-0.76,0.07-1.52,0.96-1.52c0.36-0.16,0.79,0.4,0.95-0.13c-1.62-1.19-3.53-1.93-5.53-2.14c-0.84,0-1.03,0.96-1.59,1.42
			c-0.96-0.3-1.88-0.8-2.87-0.23c-0.4,0.27-0.69,1.09-1.26,0.79c-0.2-0.28-0.28-0.62-0.23-0.95c-0.5-0.2-0.96,0.4-1.52,0.06
			c-0.07-0.89-1.85-1.35-0.63-2.28c0.76-0.5,1.58-1.12,2.44-0.4c0.46-0.07,1.03,0.46,1.46,0.23c0.12-0.3,0.34-0.56,0.63-0.72
			c1.55,0.03,2.64,1.16,4.03,1.59c2.28,0.03,3.83,1.75,5.89,2.38c0.42-0.1,1.19,0,1.09-0.69c0.2-0.03,0.46-0.1,0.5-0.33
			c-0.84-0.84-0.99-2.01-1.12-3.17c0.1-0.07,0.16-0.2,0.33-0.16c0.1,0.53,0.5,1.19,1.09,1.19c0.53,0.13,1.26,0.03,1.46,0.66
			c0.06,0.8,0.59,0,1.02,0.13c0.33,0.1,0.84-0.13,1.19-0.07c0.1-0.69-0.3-1.91,0.63-2.21c0.73,1.06,1.2,2.29,1.35,3.57
			L251.68,118.81z"/>
		<path class="st3" d="M171.8,121.65c-2.25-1.06-4.16-3.27-5.32-5.38v-0.4C168.12,117.92,169.9,119.85,171.8,121.65z"/>
		<path class="st3" d="M250.79,117.13c-0.56-0.16-0.5-0.84-0.4-1.26C250.62,116.27,250.92,116.6,250.79,117.13z"/>
		<path class="st3" d="M178.6,117.53l0.16,0.16c-0.46-0.33-1.32-0.2-1.42-0.8C177.71,117.03,178.47,116.96,178.6,117.53
			L178.6,117.53z"/>
		<path class="st3" d="M176.16,117.46l0.13,0.46c-0.84-0.07-1.88-0.46-2.91-0.53l0.07-0.33
			C174.37,117.01,175.29,117.15,176.16,117.46z"/>
		<polygon class="st3" points="245.63,117.62 245.7,117.56 245.86,117.82 245.8,117.86 245.63,117.62 		"/>
		<path class="st3" d="M221.73,118.41c-0.3,0.3-1.16,0.37-1.75,0.46C219.91,117.75,221.07,118.15,221.73,118.41z"/>
		<path class="st2" d="M206.27,118.25c-2.52,0.99-5.15,1.59-7.69,2.38c2.28-0.89,4.79-1.62,7.15-2.52h0.56v0.16L206.27,118.25z"/>
		<path class="st3" d="M216.71,118.71l-0.93,0.66c-0.29-0.19-0.37-0.58-0.18-0.87c0,0,0,0,0,0c0.05-0.07,0.11-0.13,0.18-0.18
			C216.15,118.32,216.41,118.62,216.71,118.71z"/>
		<path class="st2" d="M206.57,118.81l-1.09,0.56c-0.13-0.59,0.53-0.63,0.84-0.79C206.44,118.65,206.67,118.58,206.57,118.81z"/>
		<path class="st2" d="M251.97,120.46c-0.1,0.42-0.46,0.16-0.84,0.23c-0.1-0.73-0.95-1.26-0.63-2.05c0.59,0.37,1.09,1.19,1.48,1.82
			H251.97z"/>
		<path class="st2" d="M196.5,119.11c-1.98,1.29-4.46,1.62-6.47,2.54c1.85-0.96,3.96-1.68,5.94-2.61
			C196.14,119.08,196.37,118.98,196.5,119.11L196.5,119.11z"/>
		<path class="st2" d="M253.26,120.4c-0.16,0.46,0.42,0.8,0,1.19c-0.42,0.16-0.23-0.36-0.49-0.5
			C252.93,120.86,252.93,120.43,253.26,120.4z"/>
		<path class="st3" d="M243.75,121.09v0.17c-0.33,0.13-0.66-0.27-0.89,0.1l0.16,0.23c-0.24,0.38-0.74,0.51-1.12,0.27c0,0,0,0,0,0
			c-0.05-0.03-0.09-0.07-0.13-0.11c-0.17-0.49-0.13-1.19,0.56-1.12C243.17,120.17,242.92,121.47,243.75,121.09z"/>
		<path class="st3" d="M227.51,120.98c-0.73,0.42-1.52,0.96-2.48,0.63l-0.23-0.16C225.43,121.21,226.58,120.32,227.51,120.98
			L227.51,120.98z"/>
		<path class="st2" d="M252.14,121.59c-0.3-0.13-0.42,0.27-0.69,0.46c-0.4,0.03-0.69-0.4-1.06-0.23l0.33,0.33
			c-0.27,0.17-0.56,0-0.79-0.16C250.39,121.09,251.38,121.42,252.14,121.59z"/>
		<path class="st3" d="M179,121.98c0.13,0.42-0.16,0.73-0.4,1.03c-0.42-0.31-0.58-0.87-0.4-1.35
			C178.47,121.09,178.96,121.65,179,121.98z"/>
		<path class="st2" d="M246.99,123.34c-0.03,0.59-0.42-0.13-0.69,0c-0.3-0.23-0.48-0.58-0.5-0.96l0.17-0.56
			C247.15,121.62,246.29,123.04,246.99,123.34z"/>
		<path class="st3" d="M191.61,122.05c-0.15,0.08-0.32,0.12-0.5,0.1C190.95,122.15,191.48,122.15,191.61,122.05z"/>
		<path class="st2" d="M255.47,124.03c-0.53,0.13-0.66,0.63-0.95,1.02c-0.07-0.46-0.23-1.15,0.16-1.59l0.4,0.4
			c0.4-0.23-0.13-0.66,0.16-0.84c0.31,0.25,0.4,0.67,0.23,1.02L255.47,124.03z"/>
		<path class="st3" d="M180.65,123.8c0.16,0.07,0.23-0.07,0.33-0.16c0.1,0.33-0.07,0.68-0.4,0.79c-0.3-0.07-0.73,0.16-0.84-0.23
			l0.69-0.84c0,0.18,0.09,0.35,0.23,0.46L180.65,123.8z"/>
		<path class="st3" d="M176.23,124.82c0.42,0.84-0.66,0.99-1.12,1.35h-0.14C174.57,125.32,175.5,124.82,176.23,124.82z"/>
		<path class="st2" d="M242.23,128.88c0.72-0.03,1.65-0.69,2.15-0.1c-0.1,0.3-0.73,0.3-0.56,0.8c2.1,1.02,4.33,2.44,5.71,4.52
			c0.3,0.2,0.66,0.59,1.03,0.4l-0.17-0.56c0.37,0.03,0.5,0.46,0.8,0.56c0.5-0.2,0.03-0.46,0.16-0.79l0.4,0.16v-0.63
			c0.29,0.15,0.41,0.51,0.26,0.8c-0.01,0.01-0.02,0.03-0.02,0.04c0,0.46-0.49,1.12-1.02,0.63c-0.33,0-0.84,0.33-1.26,0.1
			c-0.84-2.1-3.17-2.52-4.53-4.06c-0.76,0.07-1.32-0.76-2.04-0.23c-0.99-1.09-2.48-1.98-2.15-3.56c1.06,0.16,0.13,1.78,1.26,1.91
			L242.23,128.88z"/>
		<path class="st2" d="M247.22,133.37l0.66,0.73c-0.63,0.73-1.68,1.35-2.71,1.19c-0.3-0.18-0.54-0.43-0.72-0.73
			c0.42-0.3,1.45,1.42,1.58,0c0.23-0.16,0.42,0.27,0.66-0.07v-0.33c0.13-0.03,0.2,0.1,0.3,0.16c0.13-0.07,0.07-0.26,0.23-0.23
			l0.1,0.07l0.17-0.13c-0.63-0.72-1.78-0.49-2.38-1.45l-1.52-1.72c1.39,0.79,1.95,2.52,3.63,2.52L247.22,133.37z"/>
	</g>
	<g id="schrift_1_">
		<path class="st3" d="M194.45,59.15l-5.15,27.02l-5.17-27.02h2.85l2.34,13.65l2.36-13.65H194.45z"/>
		<path class="st3" d="M199.23,84.38h-2.77V59.15h2.77V84.38z"/>
		<path class="st3" d="M210.38,84.38h-3.01c-1.65,0-2.77-0.3-3.37-0.91c-0.67-0.67-1.01-1.96-1.01-3.85V59.15h2.77v20.48
			c0,0.99,0.07,1.58,0.2,1.75c0.13,0.18,0.61,0.27,1.42,0.27h3.01L210.38,84.38z"/>
		<path class="st3" d="M218.9,84.38h-3.01c-1.64,0-2.77-0.3-3.37-0.91c-0.68-0.67-1.01-1.96-1.01-3.85V59.15h2.77v20.48
			c0,0.99,0.07,1.58,0.21,1.75c0.14,0.18,0.61,0.27,1.42,0.27h3.01L218.9,84.38z"/>
		<path class="st3" d="M230.01,84.38h-2.7v-5.24h-3.37v5.24h-2.71v-5.24h-2.33l-1.62-2.6h3.95V63.54c0-1.57,0.4-2.82,1.2-3.73
			c0.84-0.93,2.05-1.43,3.29-1.37c1.21-0.06,2.38,0.44,3.16,1.37c0.76,0.91,1.13,2.16,1.13,3.73L230.01,84.38z M227.31,76.55V63.54
			c0-0.84-0.13-1.45-0.38-1.79c-0.34-0.38-0.84-0.57-1.35-0.51c-0.48-0.05-0.95,0.14-1.26,0.51c-0.25,0.34-0.38,0.93-0.38,1.79
			v13.01H227.31z"/>
		<path class="st3" d="M174,108.63c0.04,0.97-0.38,1.9-1.11,2.52c-0.88,0.68-1.97,1.01-3.07,0.95h-4.76v-5.22h-2.33l-1.64-2.6h3.95
			V85.76c0.32,0,1.08,0.32,2.3,0.95c1.67,0.84,3.14,2.01,4.32,3.45c3.29,4.2,3.08,10.16-0.5,14.12c0.81,0.18,1.56,0.58,2.15,1.17
			c0.48,0.57,0.72,1.3,0.68,2.04L174,108.63z M171.3,97.38c0-1.9-0.62-3.75-1.76-5.27c-0.53-0.69-1.13-1.32-1.79-1.89v14.05
			c0.64-0.54,1.23-1.14,1.75-1.8C170.64,101.02,171.28,99.23,171.3,97.38L171.3,97.38z M171.3,108.32v-0.42
			c0-0.7-0.42-1.05-1.26-1.05h-2.31v2.5h2.31c0.85,0.03,1.26-0.32,1.26-1.02V108.32z"/>
		<path class="st3" d="M186,112.11h-4.12c-2.5,0-3.75-1.4-3.75-4.21v-1.01h-2.32l-1.62-2.6h3.95V86.87h7.87v2.74h-5.18v14.66H186
			v2.6h-5.17v1.52c0,0.65,0.34,0.98,1.02,0.98H186V112.11z"/>
		<path class="st3" d="M198.9,112.11h-2.7v-3.95c0.04-0.36-0.04-0.72-0.22-1.03c-0.27-0.21-0.61-0.3-0.95-0.25h-2.38v5.24h-2.7
			v-5.24h-2.33l-1.62-2.6h3.95V85.76c0.34,0,1.11,0.29,2.3,0.88c1.68,0.78,3.16,1.93,4.32,3.37c1.57,2.01,2.39,4.51,2.33,7.06
			c0.04,2.68-0.98,5.26-2.84,7.2c1.07,0.11,1.81,0.42,2.23,0.98c0.41,0.56,0.61,1.51,0.61,2.91V112.11z M196.2,97.39
			c0.01-1.92-0.6-3.8-1.75-5.34c-0.54-0.67-1.14-1.28-1.79-1.82v14.05c0.65-0.48,1.24-1.04,1.76-1.66c1.18-1.49,1.81-3.35,1.79-5.25
			V97.39z"/>
		<path class="st3" d="M210.53,112.11h-2.7v-11.11l-3.25-5.43v16.54h-2.77V85.55l6.02,10.45v-9.12h2.7V112.11z"/>
		<path class="st3" d="M219.45,86.87c-1.12,1.07-2.02,2.36-2.64,3.79c-0.62,1.37-0.94,2.86-0.95,4.36c0,1.4,0.5,3.27,1.49,5.61
			s1.49,4.11,1.48,5.3c0.01,2.17-0.55,4.3-1.62,6.18h-3.48c1.6-1.94,2.4-3.95,2.4-6.02c0-0.45-0.67-2.53-2.01-6.25
			c-0.6-1.54-0.92-3.18-0.95-4.83c-0.01-1.46,0.19-2.92,0.61-4.32c0.43-1.37,1.09-2.65,1.96-3.79L219.45,86.87z"/>
		<path class="st3" d="M228.5,89.61h-3.01v22.5h-2.7v-22.5h-2.97v-2.74h8.68V89.61z"/>
		<path class="st3" d="M239.08,112.11h-4.12c-2.5,0-3.75-1.4-3.75-4.21v-1.01h-2.33l-1.62-2.6h3.95V86.87h7.87v2.74h-5.17v14.66
			h5.17v2.6h-5.17v1.52c0,0.65,0.34,0.98,1.02,0.98h4.15L239.08,112.11z"/>
		<path class="st3" d="M244.61,112.11h-2.77V86.87h2.77V112.11z"/>
		<path class="st3" d="M257.08,112.11h-2.7v-11.11l-3.25-5.43v16.54h-2.77V85.55l6.02,10.45v-9.12h2.7V112.11z"/>
	</g>
</g>
<g>
	<path class="st6" d="M114.2,84.46c0.76,0.83,1.51,1.67,2.27,2.5c0.22,0.25,0.2,0.52,0.07,0.8c-0.53,0.32-1.21,0.37-1.35,1.24
		c-0.24,1.52-1.19,1.5-2.32,0.87c-0.44-0.24-0.97-0.69-1.42-0.18c-0.43,0.49,0.05,0.98,0.31,1.42c0.39,0.65,0.37,1.39,0.54,2.08
		c0.32,1.29-0.11,2.01-1.46,2.21c-1.56,0.23-2.73,1.21-3.87,2.22c-0.15,0.1-0.3,0.22-0.44,0.33c-0.39,0.01-0.78,0.02-1.17,0.03
		c-0.12-2.08,1.03-3.32,2.77-4.13c2.24-1.03,2.26-1.09,0.99-3.28c-0.13-0.23-0.24-0.47-0.37-0.85c-0.61,0.97-1,2-1.79,2.75
		c-0.77,0.72-1.52,0.91-2.44,0.14c-1.62-1.35-2.66-1.4-4.02-0.4c-1.63,1.2-1.91,2.06-1.3,3.96c0.06,0.19,0.02,0.39-0.05,0.58
		c-0.69,0.54-1.13,1.18-1.1,2.12c0.01,0.42,0.26,1.09-0.57,1.13c-1.88-1.44-3.63-2.96-4.24-5.42c-0.36-1.43-1.25-2.42-2.89-2.52
		c-1.42-0.09-0.38-0.52-0.09-0.84c0.58-0.61,0.76-1.57,1.65-1.91c0.69-0.38,1.41-0.7,2.06-1.15c1.87-1.3,1.76-1.28,0.63-3.23
		c-1.63-2.8-3.53-5.6-1.94-9.12c0.3-0.67-0.05-1.43,0.01-2.15c0.31-0.58,0.32-1.43,1.27-1.45c0.78,1.63,0.57,3.46,1.04,5.18
		c0.44,1.6,1.13,3.05,1.82,4.58c0-2.2-1.16-4.29-0.66-6.52c0.49-2.18,0.73-4.4,1.03-6.61c1.37,0.02,2.6,1.84,1.87,2.9
		c-0.87,1.26-0.39,2.78-0.94,4.13c-0.27,0.66,0.76,1.3,1.52,1.59c0.84,0.32,1.54-0.01,2.15-0.62c0.55-0.55,0.66-1.26,0.81-1.98
		c0.26-1.23-0.76-0.95-1.34-1.2c-0.57-0.25-1.17-0.62-0.99-1.29c0.18-0.69,0.9-0.26,1.38-0.35c0.32-0.06,0.66,0.04,0.96-0.15
		c3.19-0.66,5.44,0.52,6.79,3.48c0.36,1.1-0.07,1.12-0.8,0.55c-0.71-0.56-1.21-1.38-2.11-1.87c0.41,2.58,0.3,5.01-0.55,7.36
		c-0.48,1.33-0.09,2.44,1.02,3.1c1.14,0.68,2.3,0.48,3.08-0.77c0.82-1.31,1.73-1.25,2.69-0.15
		C113.09,84.03,113.66,84.21,114.2,84.46z"/>
	<path class="st7" d="M73.56,77.67c-0.17,0.3-0.43,0.46-0.78,0.49c-0.85,0.52-1.34,0.11-1.68-0.66c-0.24-0.54-0.35-1.13-0.59-1.67
		c-0.6-1.35-1.42-1.67-2.52-0.51c-1.08,1.02-1.59,2.05-0.98,3.66c0.52,1.36-0.57,2.76-0.57,4.22c0,0.5-0.17,1.01,0.03,1.53
		c0.31,0.95,0.41,1.92,0.52,2.91c0.27,2.28,0.56,4.51,2.1,6.47c1.64,2.08,1.16,4.37-0.18,6.46c-0.98,1.53-4.01,2.03-5.42,0.87
		c-0.43-0.35-0.79-0.65-1.34-0.63c-2.24-2.99-2.86-6.24-2.44-10.01c0.55-4.95,1.79-9.81,1.8-14.83c0.01-1.88,1.5-3.37,1.38-5.29
		c-0.04-0.59,0.51-0.46,0.88-0.47c0.9-0.03,1.81-0.32,2.28-1c1.74-2.52,4.56-3.71,6.75-5.66c0.24,0.26,0.4,0.66,0.18,0.89
		c-1.82,1.91-1.64,5.04-4.03,6.6c-0.26,0.17-0.44,0.49-0.43,0.99c1.5,0.36,2.21-0.34,2.65-1.72c0.41-1.28,0.12-2.81,1.36-3.79
		c0.91,0.29,1.03,0.97,0.72,1.71c-0.78,1.84-0.44,3.58,0.34,5.3C74.22,74.92,74.29,76.3,73.56,77.67z"/>
	<path class="st8" d="M72.41,66.61c-0.26,1.28-0.59,2.54-0.77,3.83c-0.21,1.45-0.86,2.27-2.42,2.23c-0.48-0.01-1.05,0.58-1.42-0.02
		c-0.41-0.67-0.04-1.32,0.53-1.72c2.6-1.8,2.69-5.11,4.49-7.39c1.05-1.6,2.28-2.54,4.43-2.67c1.84-0.11,3.74-0.92,5.01-2.65
		c0.8-1.09,1.72-2.1,3.1-2.65c1.08-0.43,1.98-0.62,2.9,0.18c1.71,1.5,3.5,0.13,5.24,0.09c1.54-0.04,3.07-0.53,4.61-0.82
		c0.26-0.07-0.04,0.07,0.18-0.06c1.69-0.95,2.93-0.69,3.59,1.26c0.31,0.39,0.65,0.77,0.45,1.34c-1.55,1.41-2.55,3.17-3.69,4.9
		c-1.31,1.99-2.83,3.94-4.16,6c-0.52,0.8-1.51,0.77-2.35,0.4c-0.84-0.38-1.1-1.15-0.84-1.99c0.32-1.06,0.24-2.09-0.04-3.12
		c-0.23-0.84-0.56-1.02-1.38-0.42c-2.02,1.46-3.12,1.25-4.26-0.91c-0.67-1.26-1.15-0.96-1.84-0.15c-0.81,0.94-1.5,2.06-2.98,1.99
		c-1.93-2.8-5.95-2.15-7.64,1.23C72.88,65.84,72.79,66.32,72.41,66.61z"/>
	<path class="st9" d="M75.17,53.85c-0.24,0.93-0.61,1.9-1.73,1.78c-1.29-0.13-2.23-1.01-2.85-2.14c-1.11-2-1.15-4.29-1.64-6.45
		c-0.35-1.53-0.57-3.12-1.1-4.58c-1.19-3.31-1.26-6.7-0.95-10.12c0.27-3.05,0.36-6.04-1.16-8.84c-0.14-0.27-0.07-0.65-0.1-0.97
		c-0.4-1.39-0.57-2.81-0.22-4.21c0.23-0.93-0.16-2.38,1.66-2.25c0.32,0.02,0.19-0.83,0.55-1.16c0.81-1.13,1.61-1.08,2.42,0
		c-0.04,2.61,0.5,5.23,0.28,7.8c-0.16,1.82,0.45,3.72-0.44,5.48c-0.05,0.1-0.02,0.29,0.05,0.38c1.42,1.84,0.83,4.09,1.25,6.13
		c0.14,2.65,0.72,5.19,1.63,7.69c0.88,2.43,0.34,5.09,0.91,7.6c0.13,0.57-0.05,1.25,0.67,1.49C75.72,51.93,75.46,52.87,75.17,53.85z
		"/>
	<path class="st10" d="M87.05,41.17c0.89-2.67,0.37-5.6,1.49-8.24c0.11-0.27,0.08-0.68-0.03-0.96c-1.1-2.7-0.7-5.33,0.48-7.85
		c1.64-3.53,0.73-7.3,1.2-10.94c0.2-1.55-0.05-3.2,0.92-4.59c0.75,0.04,1.2,0.82,2.17,0.58c1.41-0.34,2.37,0.77,3,1.84
		c0.67,1.13-0.32,1.8-1.12,2.41c-0.65,0.49-0.76,1.2-0.87,1.93c-0.62,4.12-1.11,8.25-1.49,12.4c-0.09,1.01,0.07,1.98,0.58,2.88
		c0.33,0.59,0.72,1.34,0.38,1.88c-1.3,2.05-0.73,4.16-0.3,6.23c0.28,1.37-0.25,2.69,0,4.03c0.14,0.41,0.14,0.81-0.08,1.2
		c-0.72,0.51-1.41,0.37-2.09-0.07c-0.72-1.82-0.49-3.69-0.13-5.6c-1.3,0.85-2.91,1.11-3.41,2.76
		C87.68,41.28,87.31,41.31,87.05,41.17z"/>
	<path class="st11" d="M126.37,82.93c-1.91-0.22-0.85-1.78-1.21-2.69c-0.42-2.27,0.1-4.59-0.28-6.86c0.4-3.03,0.51-6.08,1.4-9.06
		c0.65-2.17,1.52-4.2,2.59-6.14c1.03-1.87,6.22-3.4,8.16-2.58c0.65,0.28,0.82,0.66,0.67,1.39c-0.44,2.12-1.55,3.89-2.76,5.6
		c-1.03,1.45-2.07,2.83-2.72,4.54c-0.55,1.44-2.21,1.98-3.35,2.96c-0.54,0.47-1.13,0.88-1.69,1.31c-2.2,2.55-1.19,5.48-0.86,8.27
		C126.45,80.78,126.72,81.83,126.37,82.93z"/>
	<path class="st12" d="M62.15,100.8c0.43-0.27,0.19-1.17,0.96-1.08c0.65,0.08,0.5,0.67,0.56,1.1c0.05,0.35,0.29,0.84,0.53,0.68
		c1.23-0.82,2.8,0.8,3.87-0.57c1.17-1.51,1.82-3.19,1.39-5.15c-0.04-0.19-0.12-0.4-0.25-0.54c-2.83-3.05-2.49-7.04-3.17-10.72
		c1.75,0.6,1.54,2.2,1.69,3.54c0.13,1.21,0.2,2.36,1.46,2.98c0.7,1.02,1.67,1.07,2.78,0.88c0.8-0.14,1.66-0.56,2.4,0.18
		c-0.05,1.06-0.96,1.17-1.66,1.37c-1.52,0.44-1.8,1.29-1.57,2.82c0.33,2.24,0.73,4.32,2.07,6.27c0.99,1.43,0.58,3.32,0.51,5.02
		c-0.05,1.11-0.32,2.22,0.02,3.32c-0.17,0.71-0.74,0.91-1.35,1.07c-1.24-0.55-2.49-1.09-3.72-1.67c-0.33-0.15-0.85-0.32-0.73-0.78
		c0.47-1.76-0.89-2.52-1.87-3.4C64.38,104.62,62.96,102.95,62.15,100.8z"/>
	<path class="st13" d="M93.46,42.77c-1.07-1,0.17-2.17-0.29-3.36c-0.43-1.1-0.2-2.44-1.1-3.48c-0.42-0.48-0.11-0.97,0.26-1.41
		c1.14-1.34,1.46-2.71,0.26-4.24c-0.61-0.78-0.43-1.8-0.33-2.69c0.49-4.48,1.05-8.95,1.57-13.42c0.07-0.58,0.29-0.97,0.86-1.19
		c0.85-0.34,2.06-0.89,1.13-1.84c-0.71-0.73-1.53-2.83-3.27-1.09c-0.13,0.13-0.31,0.21-0.52,0.35c-0.68-0.43-0.18-1.46-0.93-1.81
		c0.3-1.38,0.93-2.67,2.47-2.6c1.58,0.08,2.79,0.99,3.26,2.69c0.83,3.02-0.15,5.87-1.19,8.53c-0.85,2.2-1.27,4.11-0.68,6.46
		c0.69,2.75,0.72,5.74,0.19,8.45C94.48,35.67,93.73,39.18,93.46,42.77z"/>
	<path class="st14" d="M77.56,85.43c1.36,1.43,1.78,3.4,2.82,5.02c0.17,0.35,0.31,0.71,0.45,1.08c0.09,0.32,0.21,0.62,0.35,0.92
		c0.33,0.68,0.56,1.42-0.07,2.02c-0.67,0.63-1.34,0.2-2.02-0.21c0.12,1.34,0.32,2.64-0.13,3.92c-0.6,1.7-1.34,2.12-2.98,1.44
		c-1.26-0.53-1.56-0.23-1.32,1.05c0.17,0.91,0.04,1.75-1.11,1.95c-2.04-2.22-2.68-4.88-2.27-7.79c0.14-0.99,1.02-1.53,1.96-1.74
		c0.86-0.2,1.33-0.72,1.75-1.44C76.15,89.7,77.22,87.72,77.56,85.43z"/>
	<path class="st15" d="M98.99,96.84c0.01-0.59-0.38-0.96-0.74-1.35c-0.34-0.36-0.62-0.83-0.28-1.24c1.25-1.51,2.37-3.2,4.62-3.37
		c0.93-0.07,1.58,0.39,1.98,1.07c0.83,1.39,1.54,0.84,2.29-0.02c0.73-0.84,0.96-2.03,1.88-2.74c0.42,0.6,0.84,1.18,1.25,1.77
		c1.06,1.53,0.66,2.68-1.13,3.09c-2.12,0.48-2.73,2.27-3.51,3.92c-1.85,0.54-3.71,1.09-5.56,1.63
		C99.09,98.81,98.68,97.93,98.99,96.84z"/>
	<path class="st6" d="M80.79,64.23c1.12-0.71,2.14-1.5,2.85-2.66c0.34-0.55,0.89-1.02,1.66-0.85c0.73,0.16,0.5,0.81,0.62,1.29
		c0.22,0.91,0.81,1.57,1.68,1.76c0.9,0.19,1.73-0.2,2.16-1.04c0.85-1.67,1.5-0.65,1.76,0.23c0.36,1.2,1.06,2.47,0.27,3.78
		c-0.42,0.7-0.26,1.39,0.39,1.7c0.69,0.33,1.61,0.5,2.09-0.41c0.42-0.8,1.21-1.43,1.16-2.46c-0.01-0.25,0.02-0.68,0.16-0.74
		c2.9-1.32,2.97-4.83,5.15-6.68c0.38-0.33,0.94-0.45,1.42-0.66c1.42,0.68,0.72,2.12,1.11,3.17c0.01,0.41,0.02,0.82,0.03,1.23
		c-0.51,0.77-0.84,0.4-1.07-0.2c-0.26-0.66-0.16-1.45-1.01-2.26c-0.67,3.16-2.96,5.36-3.6,8.36c-0.81,0.87-1.38,1.9-2.06,2.85
		c-0.41,0.58-0.78,1.23-1.61,1.31c-0.74-0.24-1.02-1.09-1.78-1.3c-0.5-0.31-1-0.61-1.5-0.92c-0.71-0.99-1.2-2.2-2.7-2.36
		c-0.84-0.09-1-0.96-1.29-1.61c-0.19-0.48-0.5-0.9-0.75-1.35c-0.52-0.93-1.16-1.09-2.05-0.46c-0.83,0.59-1.69,1.26-2.83,0.74
		C80.83,64.62,80.73,64.48,80.79,64.23z"/>
	<path class="st16" d="M114.2,84.46c-0.87,0.57-1.38,0.28-1.88-0.58c-0.64-1.09-1.4-1.18-1.94,0.13c-0.78,1.9-2.35,1.47-3.69,1.08
		c-1.2-0.35-1.88-2.69-1.26-3.87c0.54-1.04,0.48-2.04,0.49-3.17c0.02-1.42,0.74-2.81-0.42-4.12c-0.07-0.08,0.11-0.52,0.28-0.66
		c0.38-0.32,0.74-0.09,1.03,0.21c0.69,0.71,1.36,1.43,2.04,2.15c0.55,0.58,0.38-0.09,0.49-0.28c0.81,2.04,1.69,3.9,3.76,5.15
		C114.37,81.25,113.44,83.22,114.2,84.46z"/>
	<path class="st17" d="M97.4,67.82c-0.16-1.24,0.11-2.48,0.93-3.32c1.22-1.24,1.37-2.93,2.18-4.33c0.26-0.45-0.04-1.35,0.89-1.2
		c0.74,0.12,0.87,0.85,1.16,1.45c0.23,0.48-0.81,1.66,0.74,1.45c-0.67,1.47-1.44,2.81-2.9,3.74c-1.51,0.97-1.14,2.6-1.03,4.1
		c0.16,2.1,1.82,1.86,3.17,2.15c-0.56,0.63-1.41,0.12-2.1,0.51c0.56,1.38,1.68,0.96,2.84,0.91c-0.37,1.56-0.02,3.3-1.63,4.38
		c-1.13,0.76-2.21,0.78-3.19-0.24c-0.76-0.79-2.14-1.46-0.59-2.8c0.5-0.43,0.35-1.09,0.11-1.67c-0.46-1.09,0.05-1.58,1.17-1.69
		c-0.62-0.94-1.18-1.79-1.75-2.65C97.19,68.35,97.16,68.09,97.4,67.82z"/>
	<path class="st10" d="M117.69,26.14c-2.64,1.19-2.45,4.43-4.43,6.09c-0.1,0.08-0.2,0.15-0.3,0.23c-0.94,0.32-1.17-0.07-0.9-0.93
		c0.91-2.98,1.7-5.98,1.21-9.15c-0.14-0.93,0.24-1.8,0.51-2.67c0.73-0.86,1.56-1.61,2.35-2.41c1.31-1.33,2.52-0.91,2.98,0.93
		c0.18,0.73,0.22,1.45-0.09,2.14c-0.4,0.87-0.57,1.72-0.26,2.68C119.15,24.31,118.14,25.15,117.69,26.14z"/>
	<path class="st18" d="M51.67,52.76c0.05-1.17-0.18-2.38,0.71-2.6c0.99-0.25,1.64,0.73,2.16,1.64c0.64,1.11,0.84,2.34,1.26,3.5
		c0.46,1.31,1.25,2.42,2.11,3.52c1.72,2.21,1.76,4.82,1.32,7.45c-0.11,0.65-0.59,0.64-0.99,0.21c-0.27-0.28-0.49-0.62-0.66-0.97
		c-1.84-3.74-4.44-7.09-5.67-11.14C51.71,53.77,51.71,53.09,51.67,52.76z"/>
	<path class="st19" d="M73.58,102.41c0.88-0.47,1.06-1.21,0.53-1.97c-0.48-0.68-0.49-1.15,0.16-1.67c0.58-0.46,1.03-0.26,1.58,0.12
		c1.57,1.07,2.23,0.84,2.73-1.03c0.35-1.28,0.28-2.6-0.17-3.88c-0.11-0.3-0.1-0.69,0.22-0.89c0.25-0.16,0.54-0.01,0.67,0.23
		c0.34,0.61,0.59,1.59,1.5,0.92c0.78-0.57,0.1-1.28-0.26-1.89c-0.12-0.21-0.11-0.5-0.15-0.76c2.08,0.73,1.78,2.93,2.67,4.4
		c0.21,0.36,0.18,0.88,0.42,1.27c0.03,1.03,0.06,2.06,0.09,3.09c0.18,0.6,0.35,1.2-0.15,1.74c-0.94,0.03-1.89-0.33-2.79,0.4
		c-0.53,0.43-1.26,0.26-1.89,0.03c-0.7-0.26-1.38-0.29-2.11-0.07c-1.93,0.58-2.07,0.79-1.6,2.74c0.43,1.77,0.06,2.43-1.55,2.72
		C74.24,106.1,72.84,104.23,73.58,102.41z"/>
	<path class="st20" d="M70.79,34.83c-0.59-0.52-0.37-1.22-0.38-1.85c-0.02-1.37-0.33-2.61-0.75-3.94c-0.52-1.65-0.22-3.62,0.02-5.41
		c0.16-1.18,0.21-2.26-0.01-3.45c-0.33-1.75-0.53-3.56,0.36-5.26c0.67,0.04,1.02,0.33,1.19,1.05c0.89,3.67,0.77,7.3-0.38,10.88
		c-0.35,1.08-0.31,1.9,0.46,2.89c1.47,1.9,1.86,4.19,2.38,6.55c0.79,3.61,0.07,7.37,1.44,10.84c-1.47-0.03-1.63-1.15-1.65-2.19
		c-0.04-1.97,0.02-3.88-1.63-5.42c-0.63-0.59-0.61-1.69-0.65-2.62C71.18,36.19,71.3,35.45,70.79,34.83z"/>
	<path class="st21" d="M87.05,41.17c0.39-0.15,0.68-0.41,0.78-0.82c0.2-0.81-0.4-2.43,1.54-1.45c0.12,0.06,0.58-0.46,0.81-0.76
		c0.31-0.4,0.48-1.04,1.17-0.71c0.56,0.27,0.68,0.94,0.46,1.37c-0.85,1.69-0.23,3.44-0.35,5.15c0,0.83,1.62,1,0.87,2.14
		c-0.26,1.7-1.28,2.97-2.36,4.22c-0.5,0.58-1.12,0.7-1.78,0.55c-0.65-0.15-1.04-0.71-0.94-1.34C87.69,46.73,86.68,43.97,87.05,41.17
		z"/>
	<path class="st22" d="M73.59,107.98c1.35-0.81,1.48-1.8,0.71-3.16c-0.62-1.11-0.58-2.07,1.07-2.48c1.34-0.33,2.54-1.09,3.91-0.1
		c0.56,0.4,1.34,0.05,1.61-0.38c0.92-1.41,1.53-0.4,2.22,0.16c0.42,1.38-0.46,1.69-1.52,1.83c-2.57,0.34-2.99,1.12-1.76,3.34
		c0.78,1.42-0.19,2.23-1.14,2.92c-0.54,0.39-1.13,0.62-1.15,1.4c-0.26,0.15-0.51,0.3-0.77,0.45c-0.8-0.54-1.52-1.2-2.36-1.71
		C73.59,109.74,73.05,109.03,73.59,107.98z"/>
	<path class="st23" d="M67.63,74.98c1.84-1.73,2.81-1.4,3.58,1.16c0.26,0.87,0.11,2.09,1.58,2.01c-0.13,0.13-0.27,0.27-0.4,0.4
		c-0.44,0.29-0.99,0.43-1.31,0.86c-0.69,0.93-0.99,1.77,0.2,2.68c1.19,0.9,2.35,1.59,3.89,1.22c0.5,0.56,1.52,0.57,1.63,1.54
		c-0.63,0.35-1.18,0.82-1.9,1.01c-1.29-0.21-2.62-0.25-3.61-1.36c-0.67-0.75-1.15-0.08-1.59,0.43c-0.49,0.58-1.06,1.09-1.87,0.74
		c-0.85-0.37-1.39-1.1-1.38-2.01c0.01-0.72-0.18-1.51,0.1-2.14c0.55-1.21,0.73-2.26,0.03-3.53C65.93,76.79,67.44,76.05,67.63,74.98z
		"/>
	<path class="st24" d="M43.8,42.31c-0.78-1.71-0.43-3.46,0.05-5.11c0.31-1.07,1.43-1.52,2.55-1.56c1.7-0.06,2.85,0.97,3.68,2.27
		c1.36,2.13,0.98,4.59,0.84,6.91c-0.05,0.75-1.06,1.81-1.83,2.05c-1.04,0.32-1.55-0.93-2.15-1.67c0.26-0.73,1.56-1.14,1.15-1.9
		c-0.71-1.29-0.9-2.91-2.13-3.87c-1.05-0.82-1.54-0.52-1.66,0.86C44.24,40.98,44.42,41.74,43.8,42.31z"/>
	<path class="st7" d="M75.17,85.71c0.32-0.73,0.66-1.4,1.64-0.84c0.13,0.14,0.27,0.27,0.4,0.41c0.18,0.27,0.15,0.55,0.07,0.84
		c-1.08,1.84-1.67,3.92-2.66,5.81c-0.08,0.05-0.16,0.1-0.25,0.15c-1.2,0.15-2.41,0.25-3.6,0.48c-1.1,0.21-1.6-0.16-1.56-1.27
		c0.55-1.03,0.66-2.05,0.24-3.18c-0.4-1.07-0.52-2.21,0.51-3.06c1.03-0.84,1.84-0.05,2.61,0.5C73.43,86.15,74.28,86.09,75.17,85.71z
		"/>
	<path class="st25" d="M77.15,86.11c0.02-0.28,0.03-0.55,0.05-0.83c0.14,0.01,0.26,0.06,0.36,0.15c1.24,1.8-0.43,3.04-0.98,4.41
		c-0.61,1.51-1.33,3.08-3.34,3.54c-1.65,0.38-2.27,2.66-1.47,4.92c0.5,1.41,1.2,2.74,1.8,4.11c0.09,1.09-0.25,2.23,0.56,3.24
		c0.73,0.92-0.66,1.48-0.55,2.33c-0.12,1.1,0.53,1.67,1.41,2.1c0.82,0.4,1.68,0.79,1.78,1.88c-1.11,1.09-1.29,2.47-1.27,3.92
		c0.01,0.7,0.09,1.43-0.27,2.09c-1.03-1.2-0.67-2.67-0.49-3.96c0.19-1.32-0.26-2.11-1.15-2.86c-0.48-0.7-0.69-1.32-0.58-2.3
		c0.28-2.51,0.8-5.02-1.15-7.41c-1.44-1.77-1.11-4.37-1.4-6.62c-0.11-0.87,0.66-1.31,1.47-1.6c0.84-0.3,1.83-0.34,2.45-1.14
		c0,0,0,0,0,0c0.63-1.5,1.67-2.83,1.84-4.53C76.27,86.93,76.74,86.53,77.15,86.11z"/>
	<path class="st26" d="M117.69,26.14c0.66-2.61,0.71-5.29,0.81-7.96c0.02-0.47,0.02-1.11-0.72-1.21c-0.68-0.1-1.18,0.26-1.47,0.79
		c-0.58,1.03-1.35,1.75-2.54,1.96c0.24-1.99,1.11-3.58,2.85-4.66c1.35-0.83,3.14-0.26,3.76,1.22
		C121.45,18.87,120.04,24.07,117.69,26.14z"/>
	<path class="st27" d="M70.79,34.83c1.05,0.47,0.85,1.43,0.78,2.24c-0.1,1.09,0.19,2.23,0.98,2.67c1.84,1.01,1.36,2.59,1.42,4.09
		c0.05,1.22-0.33,2.59,1.15,3.31c0.42,2.24,0.73,4.47,0.04,6.71c-0.19-0.71,0.56-2.05-1.21-1.74c-0.27,0.05-0.98-0.78-0.94-0.85
		c1.02-1.64-0.62-3.07-0.29-4.66c0.33-1.58,0.04-3.19-0.59-4.65C71.16,39.66,70.72,37.3,70.79,34.83z"/>
	<path class="st28" d="M92.18,70.64c0.88-0.09,1.27,0.52,1.65,1.16c0.09,0.09,0.12,0.17,0.08,0.25c-0.04,0.08-0.07,0.12-0.1,0.12
		c-0.47,0.44-0.7,0.99-0.79,1.61c-1.44,2.43-1.45,5.15-1.63,7.85c-0.05,0.73,0.31,1.24,0.77,1.75c2.48,2.72,2.41,4.03-0.31,6.3
		c-0.66,0.39-0.83,1.29-1.61,1.55c0.12-0.58,0.49-1.26,0.31-1.72c-1.36-3.44-0.04-6.9-0.22-10.35c-0.12-2.28,0.53-4.44,2.17-6.15
		C93.43,72.03,92.8,71.36,92.18,70.64z"/>
	<path class="st29" d="M43.8,42.31c0-0.66-0.1-1.34,0.04-1.97c0.16-0.72-0.62-2.11,0.61-2.03c1.05,0.07,2.6,0.35,2.9,1.93
		c0.11,0.58,0.12,1.13,0.52,1.65c1.46,1.88,1.33,2.3-0.93,3.31C45.43,44.73,44.54,43.61,43.8,42.31z"/>
	<path class="st30" d="M72.41,66.61c0.01-0.54,0.22-0.94,0.74-1.14c0.33,2.15,1.96,3.72,2.38,5.91c0.51,2.63-0.35,4.5-1.97,6.29
		c0.11-1.65,0.03-3.25-0.77-4.77c-0.88-1.67-0.88-3.37,0.11-5.02C73.29,67.24,72.89,66.91,72.41,66.61z"/>
	<path class="st31" d="M75.46,126.2c-0.37,7.75,1.74,15.41,0.86,23.28C74.87,148,74.33,133.58,75.46,126.2z"/>
	<path class="st32" d="M116.39,87.68c0.02-0.24,0.05-0.48,0.07-0.71c1.64,3.59,0.74,8.38-1.99,10.67c-0.07-0.06-0.15-0.11-0.22-0.16
		c-0.25-0.34-0.43-0.74-0.19-1.1c0.55-0.86,0.21-1.44-0.44-2.05c-0.8-0.75-0.93-1.74-0.1-2.43
		C114.9,90.74,115.39,89.05,116.39,87.68z"/>
	<path class="st33" d="M73.59,111.15c0.74,0.2,1.48,0.41,2.28,0.63c-1.12,2.04-0.63,4.14-0.64,6.19c0,1.97,0,3.93,0,6.05
		c-1.53-0.9-1.56-2.29-1.56-3.6c0-1.7,0.17-3.4,0.31-5.1c0.12-1.44-0.4-2.54-1.6-3.34C72.6,111.44,73,111.16,73.59,111.15z"/>
	<path class="st34" d="M77.54,111.51c-0.47-0.69-1.02-1.23,0.42-1.6c1.78-0.46,2.01-1.54,0.9-3.01c-0.48-0.64-0.61-1.28-0.17-2.01
		c0.58-0.97,1.37-1.82,2.51-1.55c1.3,0.3,1.67-0.29,1.92-1.31c0.59-0.44,0.32-1.09,0.43-1.65c0.55,0.87,0.69,1.84,0.68,2.84
		c-0.48,1.23-1.46,1.57-2.67,1.52c-0.69-0.03-1.39,0.08-1.54,0.88c-0.14,0.79,0.61,0.86,1.12,1.12c1.33,0.68,1.38,1.5,0.12,2.27
		c-0.41,0.25-0.68,0.59-0.91,0.99C79.8,111.23,78.82,111.65,77.54,111.51z"/>
	<path class="st35" d="M80.35,110c0.01-0.13-0.03-0.32,0.04-0.38c1.5-1.21,2.5-2.27-0.48-2.77c-0.52-0.09-0.98-0.79-0.61-1.44
		c0.38-0.67,0.93-1.59,1.75-1.3c1.39,0.51,2.24-0.21,3.18-0.91c0.12,0.69,0.06,1.28-0.57,1.76c-0.65,0.49-1.22,1.27-1.18,1.98
		C82.57,108.63,81.63,109.39,80.35,110z"/>
	<path class="st36" d="M75.17,83.33c-1.11,0.94-2.22,1.17-3.15-0.19c-0.57-0.84-2.2-0.54-2.11-1.97c0.09-1.51,0.65-2.69,2.47-2.6
		c-1.75,2.2-1.53,2.9,1.25,3.51C74.41,82.24,74.92,82.58,75.17,83.33z"/>
	<path class="st32" d="M106.52,97.96c0-0.11,0-0.21,0.01-0.32c1.16-0.6,2.13-1.61,3.47-1.8c1.73-0.24,3.25,0.23,4.35,1.69
		c0,0,0.11,0.11,0.11,0.11c-0.32,0.96-0.89,1.38-1.93,1.01C110.59,97.94,108.55,98,106.52,97.96z"/>
	<path class="st37" d="M81.07,64.68c0.74-0.27,1.65-0.36,2.18-0.85c1.62-1.54,2.61-1.03,3.41,0.76c0.13,0.29,0.29,0.57,0.43,0.85
		c-0.28,0.61-0.74,0.7-1.31,0.45c-1.15-0.45-2.16-1.56-3.6-0.57C81.87,65.53,81.33,65.08,81.07,64.68z"/>
	<path class="st38" d="M105.06,50.64c-0.77-1.6,0.15-5.14,1.53-6.06c0.28-0.18,0.61-0.4,0.87-0.09c0.33,0.38,0.28,0.85,0.05,1.29
		C106.69,47.39,105.89,48.99,105.06,50.64z"/>
	<path class="st39" d="M67.61,14.91c-0.03,0.72,0.87,1.47-0.02,2.15c-0.71,0.54-0.92-0.5-1.43-0.54c-0.4,1.99-0.6,3.99-0.53,6
		c-1.4-2.91-0.94-6.23,1.06-7.42C66.94,14.95,67.3,14.97,67.61,14.91z"/>
	<path class="st40" d="M85.77,65.9c0.44-0.15,0.88-0.3,1.31-0.45c0.36,0.9,0.63,1.67,1.96,1.66c1.6,0,1.34,1.57,1.65,2.61
		c-0.81-0.18-1.4-0.97-2.35-0.77c-0.85,0.17-1.34-0.1-1.33-1.12C87.01,66.98,86.32,66.45,85.77,65.9z"/>
	<path class="st41" d="M126.37,82.93c-0.12-2.84-1.08-5.58-0.84-8.48c0.11-1.37,0.4-2.41,1.65-3.05c-1.29,2.64-0.94,5.38-0.59,8.16
		C126.72,80.66,127.1,81.85,126.37,82.93z"/>
	<path class="st42" d="M98.99,96.84c0.37,0.9,0.78,1.78,0.8,2.78c-0.75,0.29-1.33,1.55-2.32,0.39c0.33-0.88-0.05-1.79,0.27-2.72
		C98.06,96.37,98.44,96.59,98.99,96.84z"/>
	<path class="st43" d="M83.46,97.28c-1.23-1.03-1.1-2.71-1.87-3.98c-0.37-0.61-0.61-1.27-1.22-1.7c0-0.38,0-0.77,0-1.15
		C82.23,92.35,83.36,94.58,83.46,97.28z"/>
	<path class="st44" d="M101.79,56.37c-0.67-1.98-2.21-1.57-3.68-1.36c0.81-0.52,1.75-0.86,2.34-1.69c0.23-0.31,0.43-0.71,0.91-0.41
		c0.39,0.25,0.49,0.67,0.31,1.03c-0.47,0.95,0.15,1.61,0.54,2.34C102.09,56.44,101.96,56.48,101.79,56.37z"/>
	<path class="st13" d="M92.32,46.11c-0.22-0.31,0.27-1.05-0.53-0.99c-0.37,0.03-0.82,0.74-1.05-0.1c-0.14-0.52,0.29-0.83,0.72-1.05
		c0.65-0.44,1.29,0.12,1.93,0.01C93.27,44.81,92.77,45.44,92.32,46.11z"/>
	<path class="st45" d="M112.05,31.53c0.06,0.54,0.31,0.9,0.9,0.93c-0.57,0.69-1.03,2.26-1.89,1.71c-1.3-0.84,0.75-1.45,0.73-2.37
		C111.79,31.72,111.96,31.63,112.05,31.53z"/>
	<path class="st41" d="M124.88,73.37c0.72,2.26,0.29,4.57,0.28,6.86C124.65,77.96,124.98,75.66,124.88,73.37z"/>
	<path class="st17" d="M101.79,56.37c0.14-0.03,0.28-0.06,0.42-0.09c1.02,1.29,1.27,2.77,1.07,4.36c-0.61-0.97-0.18-2.31-1.11-3.17
		C102.04,57.11,101.91,56.74,101.79,56.37z"/>
	<path class="st8" d="M93.81,72.17c0-0.12,0.01-0.25,0.02-0.37c1.07-0.54,1.39-1.69,2.08-2.54c0.43-0.53,0.6-1.36,1.49-1.43
		c0,0.26,0,0.53,0.01,0.79c0.52,2.94-0.97,5.68-0.82,8.6c0.06,1.14,0.08,2.21,0.82,3.18c0.58,0.75,0.67,1.63-0.1,2.31
		c-0.53,0.47-1.44,0.72-1.41-0.33c0.06-1.85-1.25-3.18-1.51-4.97C94.14,75.66,93.91,73.93,93.81,72.17z"/>
	<path class="st46" d="M91.86,89.68c0.04-0.19,0.02-0.44,0.13-0.57c2.03-2.47,1.97-3.19-0.49-5.55c-0.24-0.23-0.5-0.46-0.64-0.75
		c-0.59-1.17,0.67-7.79,1.66-8.74c0.14-0.13,0.34-0.19,0.52-0.29c0.41,0.96,0.2,1.87-0.02,2.87c-0.44,2.01-1.11,4.03,1,5.78
		c0.98,0.81,0.69,2.7,2.32,3.37c0.54,0.22,0,1.18-0.43,1.51C94.65,88.26,93.52,89.43,91.86,89.68z"/>
	<path class="st47" d="M114.36,97.53c-0.93,0.16-1.18-0.95-1.98-1.05c-1.33-0.16-2.66-0.53-3.86,0.5c-0.55,0.47-1.24,0.7-1.99,0.66
		c0.81-1.28,2.04-1.95,3.39-2.55c0.68-0.3,2.02,0.17,1.98-0.78c-0.04-1.01,0.16-2.26-0.73-3.15c-0.09-0.09-0.17-0.2-0.24-0.31
		c-0.4-0.59-0.57-1.16,0-1.79c0.57-0.63,1.07-0.22,1.58,0.03c1.17,0.58,2.64,2.12,2.17-1.07c-0.16-1.1,1.1-0.31,1.71-0.36
		c-0.18,1.51-0.68,2.84-1.93,3.82c-1.26,1-1.72,2,0.05,3c0.74,0.41,1.15,1.02,0.17,1.62C114.05,96.52,114.49,97.07,114.36,97.53z"/>
	<path class="st48" d="M75.17,85.71c-0.73,1.49-1.64,1.18-2.67,0.32c-0.62-0.52-1.23-1.42-2.19-0.74c-1,0.71-0.71,1.69-0.4,2.7
		c0.37,1.19,1.28,2.57-0.69,3.3c-1.86,0.2-1.92-1.17-1.96-2.39c-0.05-1.57-0.09-3.11-1.22-4.37c-1.07-0.8,0.21-1.48,0.16-2.29
		c-0.1-1.6,0.74-3.14-0.06-4.88c-0.4-0.87,0.94-1.58,1.49-2.37c-0.36,1.51-1.34,2.99-0.07,4.58c0.31,0.39-0.12,1.01-0.38,1.47
		c-0.51,0.93-0.38,1.92-0.31,2.9c0.06,0.71,0.58,1.23,1.18,1.47c0.68,0.28,1.07-0.3,1.33-0.85c0.77-1.66,1.7-1.5,2.54-0.13
		C72.72,85.71,74.36,84.61,75.17,85.71z"/>
	<path class="st12" d="M77.15,86.11c-0.98,1.96-0.99,4.37-2.78,5.96c-0.01-1.93,1.62-3.33,1.72-5.25
		C76.12,86.32,76.66,86.15,77.15,86.11z"/>
</g>
<g>
	<path class="st49" d="M313.33,54.85c0.38-0.35,0.77-0.7,1.15-1.05c0.65,0.04,1.17,0.38,1.61,0.82c0.64,0.64,1.39,0.93,2.29,1.06
		c2.27,0.34,3.32,1.47,3.58,3.73c0.08,0.67,0.16,1.31,0.99,1.25c0.84-0.07,0.94-0.74,0.76-1.39c-0.3-1.1,0.13-1.61,1.18-1.83
		c1.02-0.21,1.26-1.3,1.97-1.86c0.64-0.51,1.08-1.67,2.23-0.82c-0.88,2.39-0.65,3.03,1.39,4.31c0.74,0.47,1.41,0.53,1.95-0.13
		c0.72-0.87-0.4-0.89-0.71-1.29c-0.39-0.51-1.32-0.8-0.68-1.73c1.37,0.09,2.27,1.1,3.35,1.76c0.7,0.43,0.52,1.17,0.19,1.82
		c-0.5,0.99-1.01,1.97-1.46,2.98c-0.53,1.17-1.11,2.37-0.38,3.69c0.27,0.5,0.44,1.06-0.06,1.52c-0.46,0.42-1.02,0.31-1.57,0.15
		c-0.7-0.21-1.25-0.82-2.03-0.8c-0.72-0.03-1.38,0.05-0.82,1c0.62,1.05,1.16,2.15,2.43,2.71c1.04,0.46,1.7,1.29,0.94,2.53
		c-0.59,0.74-1.41,1.41-0.83,2.53c-0.9-0.08-1.25,0.53-1.66,1.19c-0.46,0.76-1.14,1.42-2.13,1.03c-0.89-0.35-0.94-1.16-0.86-2.03
		c0.1-1.15,0.35-2.35-0.51-3.38c-0.81-0.97-1.54-0.96-2.16,0.14c-0.51,0.91-0.85,1.92-1.16,2.92c-0.04,0.17-0.09,0.34-0.14,0.51
		c-0.23,0.85-0.05,1.72-0.19,2.58c-0.09,0.58-0.3,1.1-0.91,1.27c-0.65,0.18-1.1-0.22-1.36-0.72c-0.7-1.32-1.65-2.44-2.63-3.55
		c-0.64-0.73-0.83-1.63-0.65-2.6c0.1-0.55,0.16-1.11-0.1-1.63c-0.23-0.46-0.54-0.87-1.12-0.76c-0.55,0.1-0.54,0.6-0.58,1.03
		c-0.07,0.86,0.06,1.73-0.15,2.58c-0.05,0.17-0.14,0.33-0.24,0.48c-1.37,1.09-1.6-0.18-2.06-1.02c0.31,0.62,0.38,1.2-0.21,1.69
		c-1.13,0.95-0.72,1.8,0.15,2.64c0.53,0.52,1.08,1.01,1.76,1.34c2.35,1.14,3.89,3.2,5.58,5.07c0.7,0.77,0.79,1.79,0.58,2.81
		c-0.12,0.6-0.4,1.18-0.35,1.81c0.08,1.09-0.16,2.16-1.31,2.34c-1.35,0.22-2.88,0.55-3.94-0.86c0.37-0.41,0.88-0.43,1.37-0.42
		c1.16,0.02,2.01-0.21,1.57-1.69c-0.09-0.31,0.09-0.59,0.23-0.87c1-2.01,1-2.28-0.77-3.67c-0.91-0.72-1.4-1.88-2.7-2.55
		c0.33,1.65,0.57,3.05,1.59,4.22c0.54,0.61,0.85,1.43,0.23,2.2c-0.6,0.74-1.33,0.53-1.99,0.08c-0.78-0.54-1.4-0.02-2.07,0.22
		c-1.14-0.82-0.25-1.27,0.34-1.74c0.47-0.38,1.5-0.2,1.26-1.27c-0.22-0.97-0.42-1.98-1.48-2.43c-0.68-0.29-1.37-0.58-2.31-0.52
		c0.45,1.52,0.44,2.98-0.16,4.45c-0.4,0.99,0.35,1.71,0.88,2.49c0.79,1.16,2.36,1.97,1.9,3.77c-0.41,0.17-0.73-0.03-1.04-0.25
		c-1.13-1.14-1.88-2.58-2.92-3.79c-0.36-0.42-0.63-1-0.51-1.54c0.6-2.58,0.02-4.94-1.19-7.2c0.79-1.48,1.48-3.05,1.39-4.72
		c-0.13-2.65,1.59-4.09,3.55-4.54c2.91-0.67,2.93-2.72,3.28-4.82c0.04-0.24,0.05-0.49,0.07-0.74c0.39-1.16,1.28-1.75,2.48-2.03
		c-2.31-2.15-2.22-2.51,1.08-5.08c-1.69-0.62-3.15-1.75-4.8-2.51C313.4,55.63,313.15,55.29,313.33,54.85z"/>
	<path class="st50" d="M314.15,74.72c0-1.05,0.02-2.1-0.01-3.16c-0.01-0.66,0.05-1.27,0.79-1.49c0.77-0.22,1.31,0.2,1.72,0.78
		c0.41,0.57,0.68,1.28,0.4,1.93c-0.67,1.57,0.08,2.62,1.15,3.56c0.81,0.72,1.31,1.62,1.77,2.57c0.21,0.43,0.39,1.02,1.03,0.83
		c0.57-0.17,0.52-0.75,0.58-1.24c0.11-0.89-0.35-1.86,0.36-2.67c0.79,0.91,0.31,2.03,0.5,3.04c0.12,0.61,0.18,1.32,0.97,1.38
		c0.7,0.06,1.28-0.43,1.36-1.04c0.2-1.46,0.6-2.92,0.26-4.41c-0.1-0.42-0.26-0.89-0.78-0.93c-0.44-0.03-0.56,0.4-0.75,0.72
		c-0.36,0.62-0.59,1.41-1.58,1.25c-0.13-0.99,0.55-1.74,0.82-2.61c0.28-0.91,0.72-2.13,1.85-1.9c1.25,0.25,2.02,1.36,2.13,2.71
		c0.05,0.66,0.09,1.37-0.11,1.97c-0.26,0.77-0.24,1.47,0.48,1.72c0.88,0.3,1.53-0.36,1.82-1.14c0.37-1.03,0.73-1.76,1.87-0.77
		c0.94,1.24,2.15,2.33,1.95,4.15c-0.07,0.59-0.3,0.88-0.74,1.12c-1.53-0.08-3.08,0.07-4.6-0.31c-1.14-0.29-2.48,0.59-2.61,1.71
		c-0.15,1.28,0.49,1.89,1.81,2.03c2.16,0.23,2.73,0.85,2.82,2.62c-0.66,1.69-1.25,3.4-1.99,5.05c-0.7,1.58-1.37,3.15-1.49,4.9
		c-0.3,0.66-0.83,1.22-0.85,1.99c-0.01,0.44-0.21,0.69-0.63,0.73c-1.39,0.12-1.84,0.77-1.22,2.08c0.55,1.16-1.01,1.59-0.91,2.6
		c-0.9,0.38-5.35,0.47-6.11,0.23c-1.02-0.31-2.07-0.83-3.15-0.15c-0.12-1.54,0.73-2.58,2.03-3c1.72-0.56,3.54-0.85,5.05,0.67
		c0.13,0.13,0.32,0.2,0.51,0.11c0.13-0.16,0.15-0.38,0.04-0.51c-1.29-1.55-1.04-2.9,0.44-4.17c0.54-0.47,0.71-1.17,0.58-1.88
		c-0.17-0.93-0.08-1.85,0.25-3c-2.31,0.68-4.31,0.08-6.33-0.43c-0.51-0.13-1.13-0.51-1.55,0.03c-0.36,0.46,0.12,0.92,0.3,1.37
		c0.16,0.4,0.34,0.8,0.4,1.24c0.22,1.46-0.35,1.99-2.03,1.89c-0.1-1.31-0.42-2.59-0.49-3.91c-0.34-1.59-1.46-2.69-2.52-3.78
		c-0.92-0.94-1.09-1.93-0.56-3.03c0.62-1.28,0.68-2.47-0.16-3.67c-0.55-0.78-0.22-0.98,0.59-0.91c2.47,0.21,3.46,1.1,4.32,3.45
		c0.4,1.1,0.42,1.58-0.91,1.63c-0.79,0.03-1.59,0.32-1.13,1.45c1.18,0.56,2.05,1.43,2.6,2.61c1.02,0.69,2.24,0.37,3.36,0.62
		c0.5,0.11,1.36-0.32,1.38-1c0.08-2.6,1.05-5.21-1.75-7.45c-1.9-1.52-4.04-2.72-5.78-4.45c-1.1-1.09-1.81-2.12-0.05-3.22
		c0.42-0.26,0.68-0.55,0.22-1.01c-0.32-0.32-0.97-0.5-0.5-1.14c0.08-0.11,0.35-0.18,0.49-0.14c0.54,0.19,0.95,0.45,0.92,1.17
		C312.76,75.28,313.46,75.05,314.15,74.72c0.51,0.67-0.02,1.19-0.31,1.68c-0.57,0.96-0.32,1.59,0.57,2.17
		c2.22,1.45,3.66,3.68,5.37,5.63c1.31,1.49,1.79,3.45,1.57,5.57c1.15-0.7,1.53-1.61,1.63-2.69c0.11-1.32-0.16-2.59-0.42-3.87
		c-0.14-0.68-0.46-1.11-1.22-1.15c-1.13-0.06-1.75-0.77-2.18-1.76C318.1,77.9,316.35,76.11,314.15,74.72z"/>
	<path class="st51" d="M326.79,50.91c0.09-0.76,0.04-1.5-0.43-2.15c-1.45-3.7-1.86-7.65-2.84-11.47c-0.11-0.43,0.01-0.86,0.21-1.25
		c1.88-2.4,0.71-4.91-0.15-7.13c-1-2.57-2.53-4.91-2.77-7.76c-0.05-0.56-0.14-1.1,0.02-1.64c0.44-1.53,0.2-2.75-0.94-4.06
		c-1.07-1.23-0.98-3.11-1.42-4.69c-0.31-1.12,1-1.63,2.83-1.14c0.43-0.55-0.32-1.54,0.6-1.9c0.64-0.25,0.85,0.29,1.1,0.7
		c0.67,3.59,1.18,7.18,1.21,10.85c0.02,2.29,1.28,4.33,1.82,6.53c0.74,2.98,0.82,6.27,1.87,8.98c1.55,4.02,0.74,7.9,1.04,11.82
		c0.03,0.43-0.04,0.86-0.1,1.29c-0.41,2.78-0.34,2.65,2.18,4.04c1.91,1.06,3.36,2.83,5.42,3.79c0.86,0.4,1.7,0.66,2.6,0.8
		c0.5,1.05,0.18,1.96-0.64,2.61c-0.76,0.6-1.73,0.51-2.37-0.17c-1.73-1.86-3.92-2.79-6.31-3.37c-0.53-0.53-0.83-1.18-1.68-1.52
		C326.73,53.56,326.22,52.36,326.79,50.91z"/>
	<path class="st52" d="M334.2,92.18c0.22-0.25,0.45-0.51,0.67-0.76c1.1,0.13,0.59,0.88,0.56,1.44c-0.05,0.17-0.11,0.34-0.18,0.51
		c-0.89,1.84-0.77,2.09,1.22,2.59c0.65,0.16,1.31,0.29,1.96,0.44c1.63,0.14,3.07,1.3,4.84,0.8c0.53-0.15,1.03,0.42,0.66,0.95
		c-0.51,0.72-0.19,1.2,0.1,1.82c0.47,0.99,0.12,1.84-0.72,2.43c-0.97,0.69-1.72,1.56-2.46,2.48c-1.1,1.38-0.77,2.73,0.98,3.21
		c0.99,0.28,1.86,0.64,2.5,1.46c0.85,1.09,0.75,2.35-0.29,3.11c-1.06,0.78-1.84,0.21-2.53-0.62c-0.32-0.38-0.67-0.74-0.93-1.16
		c-0.46-0.74-0.88-1.07-1.74-0.41c-0.85,0.65-1.85,0.57-2.78-0.01c-5.56-4.53-6.92-10.6-3.69-16.4
		C332.92,93.37,333.75,92.96,334.2,92.18z"/>
	<path class="st53" d="M339.73,49.06c-0.78-2.07-1.66-4.12-0.24-6.3c0.45-0.69,0.31-1.56,0.3-2.36c-0.03-3.72,0.54-7.3,1.61-10.89
		c0.71-2.37,0.57-5-0.34-7.46c-0.94-2.54-1.41-5.12-0.14-7.7c1-2.03,2.88-2.42,4.83-1.07c1.01,1.34,1,2.58-0.31,3.73
		c-0.44,0.38-0.68,0.93-0.63,1.49c0.21,2.27-0.27,4.55,0.06,6.82c0.09,0.63,0.12,1.25-0.26,1.78c-1.38,1.97-1.15,4.12-0.61,6.24
		c0.53,2.06,0.2,4.17,0.61,6.24c0.19,0.94-0.49,1.79-1.14,2.45c-1.2,1.21-1.5,2.44-0.63,4c0.51,0.91,0.54,1.94-0.27,2.75
		C341.74,49.62,340.75,49.73,339.73,49.06z"/>
	<path class="st54" d="M329.77,55.35c2.42,0.62,4.87,1.1,6.55,3.31c0.73,0.96,1.99,0.48,2.36-0.71c0.14-0.47,0.25-0.95,0.37-1.43
		c0.79,0.07,1.32,0.6,1.88,1.06c-0.96,1.66-0.59,3,0.87,4.2c0.85,0.7,1.63,1.51,2.33,2.37c0.66,0.81,1.3,1.61,0.94,2.83
		c-0.32,1.07,0.34,1.16,1.15,0.83c0.8-0.33,1.57-0.74,2.43-0.87c1.48-0.23,2.85,0.01,3.83,1.27c0.72,0.92,1.39,1.54,2.58,0.62
		c0.69-0.53,1.28-0.29,1.45,0.64c-0.22,1.16,0.99,2.7-0.94,3.42c-0.12,0.04,0.27,0.22,0.35,0.42c0.34,0.96,0.22,1.7-0.91,1.99
		c-0.17-0.01-0.33-0.07-0.48-0.17c-0.33-0.25-0.45-0.72-1.02-0.86c-0.43,0.66-0.16,1.35-0.06,2.04c0.04,0.67-0.14,1.28-0.49,1.85
		c-0.29,0.28-0.59,0.53-1.01,0.25c-0.31-0.4-0.34-0.88-0.36-1.36c0.38-1.69-0.22-3.4,0.15-5.12c0.17-0.8-0.21-1.94-1.08-2.42
		c-0.96-0.54-1.76,0.2-2.49,0.76c-1.03,0.79-1.97,1.75-3.45,1.4c-0.55-0.23-0.89-0.01-1.23,0.46c-0.71,0.95-1.42,0.49-1.6-0.33
		c-0.24-1.14-1.4-2.42,0.52-3.52c0.46-0.26,0.46-2.28-0.31-3.37c-0.28-0.41-0.64-0.77-1.03-1.06c-0.73-0.55-1.42-1.68-2.23-1.42
		c-0.87,0.28-0.34,1.54-0.44,2.37c-0.1,0.83-0.48,1.37-1.18,1.75c-0.24,0.28-0.45,0.75-0.73,0.79c-1.72,0.27-2.04,1.54-2.25,2.93
		c-1.88-1.04-4.13-1.57-5.21-3.72c0.91-0.17,1.44,0.6,2.16,0.89c0.47,0.19,0.98,0.41,1.36-0.03c0.36-0.41,0.07-0.86-0.28-1.12
		c-0.8-0.6-0.44-1.33-0.25-2.01c0.23-0.82,0.46-1.68,0.87-2.42c2.06-3.72,1.97-4.02-2.01-5.73c-0.65,0.42-0.96,0.04-1.18-0.52
		C329.71,55.52,329.74,55.44,329.77,55.35z"/>
	<path class="st55" d="M336.08,110.48c1.17-0.11,2.48,0.4,3.26-1.1c0.32-0.61,0.98-0.28,1.1,0.27c0.22,1.01,1.14,1.45,1.57,2.26
		c0.38,0.71,1,1.11,1.64,0.57c0.62-0.52,1.38-1.23,0.66-2.21c-0.66-0.92-1.41-1.68-2.7-1.68c-0.9,0-2.72-2.65-2.18-2.96
		c1.15-0.67,1.44-2.01,2.46-2.7c1.39-0.94,2.87-1.75,1.26-3.71c-0.56-0.68,0.89-0.83,0.47-1.71c-1.94,1.14-3.51-0.44-5.3-0.8
		c0.21-0.26,0.49-0.38,0.81-0.44c0.89-0.12,1.79-0.06,2.69-0.08c0.43,0,0.86,0.05,1.29,0.04c1.48-0.02,2.34,0.63,2.39,2.19
		c0.01,0.31,0.06,0.62,0.42,0.92c0.89-0.52,0.95-1.38,0.68-2.2c-0.36-1.12-0.29-2.11,0.15-3.22c0.75-1.85-0.09-2.97-2.11-3.05
		c-0.8-0.03-1.6,0.01-2.39,0.21c-0.6,0.15-1.22,0.18-1.84,0.04c-0.65-0.14-1.14-0.49-1.26-1.19c-0.13-0.76,0.26-1.1,0.96-1.32
		c0.99-0.3,1.54-1.22,1.04-1.99c-0.41-0.63-1.3-1.66-2.42-0.62c-0.22,0.21-0.55,0.46-0.79,0.16c-0.34-0.42-0.21-0.92,0.01-1.38
		c0.02-0.39-0.12-0.81,0.19-1.15c0.41-0.12,0.61-0.68,1.15-0.52c0.33,0.11,0.57,0.36,0.86,0.52c0.91-0.02,1.64-0.61,2.6-0.68
		c1.22-0.09,1.87,0.24,2.3,1.29c0.51,1.25,0.69,2.5-0.14,3.7c-0.29,0.42-0.71,0.42-1.16,0.26c-0.97-0.33-1.14,0.34-1.33,1
		c0.46,0.39,0.88,0.15,1.29,0.1c3.61-0.44,5.77,2.01,4.92,5.59c-0.21,0.89-0.62,1.76-0.34,2.71c-0.01,1.34-0.47,2.54-1.15,3.66
		c-0.92,1.53-1.25,3.17-1.04,4.94c0.04,0.36-0.08,0.83,0.29,1.02c2.07,1.05,1.55,2.82,1.32,4.52c-0.04,0.31-0.08,0.61-0.19,0.9
		c-0.26,0.55-0.7,0.91-1.26,1.13c-1.29,0.02-2.41,0.55-3.48,1.21c-1.73-1.17-3.36-2.5-5.32-3.29
		C336.84,111.42,336.43,110.99,336.08,110.48z"/>
	<path class="st56" d="M339.73,49.06c3.3-0.08,3.63-0.67,2.18-3.75c-0.46-0.97-0.44-1.91,0.41-2.71c1.48-1.38,1.79-2.83,1.62-5.03
		c-0.21-2.73-1.25-5.39-0.8-8.17c0.05-0.3-0.05-0.7,0.11-0.9c1.1-1.44,1.09-2.94,0.94-4.71c-0.11-1.24,0.11-2.64,0.08-3.97
		c-0.03-1.39-0.25-2.78,1.34-3.7c0.77-0.45,0.84-1.46-0.06-2.17c-0.47-0.37-0.31-0.57,0.2-0.65c1.66,1.4,2.69,4.54,1.69,6.67
		c-1.92,4.1-1.35,8.39-1.17,12.59c0.27,6.49-0.54,12.74-2.97,18.75c-0.32,0.79-0.86,1.6-2.13,1.26c-1.33-0.37-1.24-1.47-1.52-2.39
		C339.55,49.82,339.7,49.42,339.73,49.06z"/>
	<path class="st57" d="M362.46,44.16c0.27-0.37,0.54-0.73,0.81-1.1c0.28-0.96,0.32-1.98,0.26-2.92c-0.12-1.86,0.02-3.42,1.87-4.42
		c0.56-0.3,0.62-1.03,0.68-1.66c0.06-0.74,0.17-1.45,1.08-1.96c-1.06-0.08-2.03,0.53-2.53-0.6c0.97-1.08,2.16-1.8,3.59-1.16
		c1.31,0.59,1.43,1.86,1.31,3.18c-0.04,0.47,0.07,1,0.26,1.44c1.09,2.42,0.22,4.52-1.36,6.2c-2.64,2.8-4.53,5.92-5.93,9.54
		c-1.4,3.62-3.1,7.22-5.73,10.21c-0.38,0.43-0.78,1.22-1.47,0.69c-0.56-0.43,0.2-0.96,0.27-1.48c0.11-0.85,0.38-1.67,0.58-2.51
		c2.85-3.62,4.21-7.77,4.41-12.34l0.01,0C361.32,45.09,362.2,45.17,362.46,44.16z"/>
	<path class="st58" d="M346.12,113.45c0.37-0.25,0.74-0.51,1.11-0.76c0.13-0.13,0.23-0.27,0.31-0.43c0.15-0.86,0.42-1.68,0.72-2.49
		c0.4-1.06,0.35-1.93-0.44-2.89c-1.16-1.42-0.5-5.52,0.91-6.73c0.9-0.77,1.91-0.51,2.57,0.64c0.25,0.43,0.15,1.35,0.93,1.1
		c0.74-0.24,1.04-1.02,0.98-1.82c-0.04-0.56-0.36-1.05-0.54-1.57c-0.21-0.62-0.16-1.15,0.3-1.7c2.12-2.56,2.08-5.4-0.03-7.93
		c-0.75-0.9-0.8-1.89-0.27-2.93c1.45-0.24,1.83,1.37,3.08,1.81c-0.11-1.66,0.07-3.21,0.36-4.75c0.19-0.98,0.56-1.82,1.83-1.2
		c0.44,3.48,0.69,6.95,0.06,10.44c-0.39-0.3-0.35-0.75-0.38-1.17c0.01,0.43-0.06,0.88,0.38,1.16c-0.03,0.72-0.38,1.32-0.72,1.93
		c-0.74-0.4-1.26-0.3-1.55,0.58c-0.38,1.12-0.77,2.23-0.48,3.43c0.3,1.23,0.04,2.43-0.7,3.32c-1.04,1.26-1.25,2.62-1.1,4.13
		c-1.32,3.29-2.44,6.71-5.47,8.95c-1.01,0.51-1.44,1.36-1.51,2.46c-0.03,0.48,0.16,1.15-0.66,1.23c-0.1-1.34-1.13-2.06-1.95-2.91
		c-0.41-1.04,0.04-1.56,1.06-1.71C345.33,113.58,345.76,113.75,346.12,113.45z"/>
	<path class="st59" d="M312.67,96.7c1.95-0.18,2.29-0.89,1.35-2.81c-0.33-0.67-1.24-1.25-0.48-2.11c0.65-0.73,1.39-0.03,2.07,0.08
		c1.39,0.23,2.71,0.75,4.15,0.82c0.44,0.02,0.83,0.04,1.24-0.16c0.44-0.21,0.81-0.96,1.41-0.32c0.5,0.53-0.07,1.04-0.15,1.55
		c-0.06,0.42-0.38,0.81-0.18,1.25c0.66,1.49,0.14,2.61-1.05,3.56c-0.91,0.73-1.26,1.5-0.2,2.43c0.26,0.23,0.41,0.61,0.57,0.94
		c0.25,0.5,0.2,0.97-0.31,1.29c-0.47,0.29-0.74-0.01-1.08-0.34c-1.4-1.37-3.61-1.83-5.16-0.8c-0.79,0.52-1.18,1.65-1.75,2.51
		c0.06,0.11,0.05,0.21-0.02,0.31c-0.32,1.09-1.46,2.01-0.75,3.33l0,0c0.12,0.22,0.23,0.44,0.24,0.69c0.02,0.46-0.08,0.91-0.64,0.91
		c-0.48,0-0.45-0.43-0.55-0.79c-0.6-2.05-0.09-4.13-0.17-6.19c0.31-1.29,0.06-2.58,0.03-3.87C311.2,97.86,311.49,97.01,312.67,96.7z
		"/>
	<path class="st60" d="M323,8.43c-0.39-0.07-0.6-0.8-1.1-0.4c-0.47,0.38-0.12,0.76,0.14,1.11c0.35,0.47,0.35,0.94-0.13,1.3
		c-0.48,0.35-0.8-0.05-1.1-0.35c-0.5-0.49-0.99-0.68-1.62-0.17c-0.74,0.6-0.46,1.21-0.04,1.78c0.38,0.52,0.65,1.05,0.57,1.71
		c-0.13,1.08,0.14,1.9,1.19,2.45c0.77,0.4,0.8,1.27,0.65,1.99c-0.89,4.26,0.51,7.89,2.96,11.26c-0.51,2.28,2.01,4.71-0.34,6.9
		c-0.66-1.04,0.2-2.48-0.9-3.43c-0.49-0.43-0.77-1.28-1.55-1.12c-0.88,0.18-0.37,1.02-0.49,1.56c-0.1,0.45,0.01,1.03-0.69,1.1
		c-0.94-2.78-1.01-5.7-1.18-8.58c-0.25-4.3-0.33-8.6-2.34-12.59c-0.65-1.28-0.47-2.84-0.13-4.18c0.31-1.23,1.14-2.57,2.64-2.45
		C320.91,6.44,322.59,6.52,323,8.43z"/>
	<path class="st61" d="M356.16,69.51c-0.2-1.08-0.75-0.62-1.1-0.17c-0.87,1.11-1.54,0.81-2.36-0.1c-2.1-2.31-3.12-2.47-5.95-1.19
		c-0.62,0.28-1.26,1.09-2,0.42c-0.63-0.57-0.56-1.29,0.01-1.98c0.37-0.45-0.11-0.78-0.32-1.13c-0.98-1.62-2.52-2.72-3.77-4.08
		c-1.32-1.44-1.27-2.37,0.26-3.69c2.46,1.33,4.44,3.4,7.04,4.55c1.2,0.53,2.5,0.93,3.51,1.91c0.56,0.53,1.38,0.47,2.02-0.13
		c0.32-0.3,0.89-0.69,0.97-0.05c0.2,1.79,1.59,2.86,2.31,4.32c0.18,0.36,0.11,0.84,0.15,1.27c0.24,1.01,0.25,2-0.06,3.25
		C355.9,71.63,356.72,70.41,356.16,69.51z"/>
	<path class="st62" d="M298.87,27.14c-0.39-0.39-0.78-0.77-1.16-1.16c0.69-3,0.86-6.08,1.44-9.09c0.04-0.19,0.2-0.28,0.41-0.24
		c3.08,1.1,3.84,4.06,4.63,6.6c0.98,3.12,1.73,6.42,1.4,9.8c-0.17,1.78-0.39,1.95-1.98,1.09c-1.92-1.04-3.33-2.51-3.6-4.81
		C299.64,28.59,300.03,27.46,298.87,27.14z"/>
	<path class="st63" d="M310.77,101.96c-1.57-1.56-3.12-3.13-3.82-5.34c-0.2-0.64-0.8-1.07-1.34-1.5c-0.99-0.81-1.58-1.79-1.52-3.17
		c0.03-0.84-0.2-1.71-0.41-2.55c-0.5-1.99-0.34-3.91,0.4-5.8c2.06,3.01,4.82,5.45,6.81,8.53c0.66,1.03,1.23,1.98,0.55,3.21
		c-0.36,0.65,0.04,1.33-0.02,1.99c-0.47,1.51,0.18,3.07-0.18,4.59C311.09,102.04,310.94,102.05,310.77,101.96z"/>
	<path class="st64" d="M344.63,71.37c1.13,0.1,2.05-0.3,2.8-1.13c0.17-0.18,0.34-0.36,0.54-0.5c0.91-0.65,1.94-1.49,3.01-0.84
		c1.07,0.65,1.58,2.29,1.31,3.19c-0.5,1.68,0.4,3.29-0.23,4.86c-0.41,2.06-0.87,2.37-2.8,1.32c-2.63-1.44-5.39-2.27-8.37-2.4
		c-0.45-0.92-0.32-1.84-0.04-2.77c1.23,0.87,2.12,0.75,2.48-0.88C343.48,71.51,343.87,71.16,344.63,71.37z"/>
	<path class="st65" d="M337.94,84.77c0.07,0.4-0.15,0.86,0.35,1.34c0.37-1.45,1.05-2.12,2.06-0.57c0.42,0.64,2-0.56,1.59,0.99
		c-0.29,1.1-0.03,2.86-2.1,2.62c-0.35-0.04-0.39,0.23-0.4,0.47c-0.01,0.47,0.18,0.93,0.65,1c0.66,0.09,1.39,0.19,2.01,0
		c0.92-0.28,1.83-0.27,2.75-0.24c2.36,0.07,3.37,1.64,2.32,3.75c-0.48,0.97-0.65,1.77-0.1,2.76c0.33,0.59,0.23,1.33-0.02,1.99
		c-0.26,0.67-0.65,1.34-1.41,1.27c-0.86-0.08-0.68-0.92-0.62-1.48c0.24-2.58-1.64-1.86-2.99-1.97c0.36-1.4,1.68-2.04,2.45-3.12
		c0.31-0.43,1.02-0.7,0.72-1.36c-0.31-0.67-1.04-0.66-1.63-0.59c-2.15,0.26-4.24,0.82-6.32,1.42c-0.78,0.22-1.53,0.57-2.27-0.07
		c-0.13-0.51,0.7-1.08-0.1-1.55C335.89,89.21,336.92,86.99,337.94,84.77z"/>
	<path class="st66" d="M326.79,50.91c0.16,1.38,0.38,2.68,2.05,3.12c0.56,0.15,0.65,0.86,0.93,1.32c0,0-0.02,0.02-0.02,0.02
		c-0.42,0.21-0.74,0.23-0.73-0.38c-1.17-0.63-1.35,0.65-1.95,1.07c-0.38,0.26-0.49,0.98-0.87,1.15c-1.43,0.67-2.34,1.43-2.06,3.28
		c0.12,0.81-1.03,0.96-1.78,0.74c-0.66-0.2-1.1-0.6-0.95-1.52c0.27-1.64-0.84-3.49-2.41-3.47c-2.11,0.03-3.21-1.28-4.51-2.45
		c0.04-0.21,0.13-0.36,0.37-0.33c1.18-0.14,2.3,0.3,3.46,0.35C321.66,54.36,324.43,53.23,326.79,50.91z"/>
	<path class="st67" d="M284.42,62.74c-1.4-0.98-1.17-2.6-1.43-3.97c-0.16-0.8,0.34-1.4,1.37-1.59c1.84-0.33,3.35,0.42,4.92,1.08
		c3.09,1.3,5.76,5.42,5.52,8.46c-0.04,0.47,0.12,1.08-0.72,0.9c-1.69-1.13-3.46-2.12-4.64-3.89c-0.74-1.12-2.1-1.49-3.19-2.15
		C285.26,60.99,285.05,62.37,284.42,62.74z"/>
	<path class="st61" d="M357.96,81.8c-0.77-0.02-1.46,0.2-1.4,1.08c0.11,1.47-0.86,2.88-0.16,4.38c0.25,0.54-0.01,1.17-0.57,1.4
		c-0.53,0.21-0.63-0.43-0.91-0.72c-0.68-0.7-1.41-1.37-2.12-2.05c-0.16-0.13-0.28-0.29-0.35-0.49c-0.55-2.47-0.8-4.94,0.35-7.33
		c0.12-0.62,0.25-1.24,0.37-1.86c-0.24-0.57-0.4-1.2,0.17-1.6c0.54-0.38,1-0.02,1.32,0.48l0,0c0.71,0.82,1.83,0.2,2.62,0.74
		C357.64,77.81,358.21,79.76,357.96,81.8z"/>
	<path class="st68" d="M320.56,34.12c0.47-0.6,0.35-1.3,0.18-1.93c-0.16-0.61-0.25-1.13,0.46-1.33c0.59-0.16,1.2-0.18,1.69,0.37
		c1.21,1.38,2.09,2.84,1.3,4.77c-0.49,1.8,0.54,3.38,0.7,5.09c0.25,2.6,1.58,5,1.48,7.67c-2.46-2.63-4.51-5.46-4.83-9.22
		C321.38,37.71,321.12,35.89,320.56,34.12z"/>
	<path class="st69" d="M340.89,75.88c0.09-0.61,0.38-0.82,1.02-0.65c2.57,0.7,5.24,1.09,7.51,2.64c1.28,0.87,2.23,0.77,2.64-0.91
		c0,0.5,0,0.99,0,1.49c-0.35,1.73-0.93,1.88-3,0.78c-0.61-0.52-1.27-0.98-2.03-1.26c-0.92-0.34-2.07-0.96-2.68,0.06
		c-0.47,0.8-0.35,2,0.24,2.94c0.19,0.29,0.6,0.47,0.41,0.93c-0.21,0.18-0.45,0.27-0.72,0.32c-1.64-0.26-3.14-0.23-3.84,1.69
		c-0.08,0.21-0.4,0.24-0.65,0.13c-0.3-0.16-0.37-0.44-0.37-0.75c-0.77-0.84-0.32-2.12-1.05-2.98c-0.26-1.47,1.14-2.01,1.8-2.9
		C340.56,76.89,340.77,76.44,340.89,75.88z"/>
	<path class="st70" d="M344.63,71.37c-0.63,0.28-1.19,0.59-1.12,1.44c0.05,0.7-0.05,1.42-0.93,1.49c-0.85,0.07-1.55-0.22-1.73-1.2
		c-0.3-1.53,0.33-3.11-0.52-4.65c-0.73-1.33-1.54-2.15-3.12-1.92c0.99-1.09,0.69-2.43,0.73-3.7c0.01-0.5-0.03-1.05,0.49-1.31
		c0.59-0.29,0.86,0.28,1.22,0.58c0.71,0.58,1.44,1.15,2.13,1.77c0.88,0.79,1.82,1.56,1.09,2.98c-0.22,0.43,0.16,0.8,0.41,1.16
		c0.23,0.33,0.32,0.71-0.05,0.99c-1.54,1.14-1.61,1.49-0.55,3.29C343.55,72.48,343.01,69.58,344.63,71.37z"/>
	<path class="st71" d="M299.55,16.65c-0.49,3.14-0.24,6.42-1.85,9.34c-3.01-2.08-3.83-6.18-1.82-9.09
		C296.84,15.53,298.02,15.45,299.55,16.65z"/>
	<path class="st49" d="M329.44,87.14c-0.34-1.59-1.45-2.2-2.93-2.19c-1.47,0-2.5-1.06-2.31-2.47c0.2-1.47,2.14-2.7,3.48-2.08
		c1.13,0.53,2.28-0.2,3.39,0.26c0.33,0.13,0.73,0.07,0.95,0.44C331.79,83.38,330.41,85.17,329.44,87.14z"/>
	<path class="st72" d="M284.42,62.74c0.49-2.15,0.99-2.2,2.8-1.11c2.67,1.6,4.53,4.04,6.85,5.99c-2.79,1.46-4.99,0.07-6.95-1.67
		C286.1,65.04,285.04,64.06,284.42,62.74z"/>
	<path class="st73" d="M311.17,97.43c-0.34-0.9-0.76-1.79,0.03-2.7c0.44-0.51,0.17-1.04-0.1-1.54c-1.23-2.22-2.72-4.21-4.72-5.83
		c-1.16-0.94-1.93-2.27-2.3-3.77c0.13-1.69,1.7-2.27,2.58-3.38c2.04,1.58,2.21,3.83,1.78,6.04c-0.26,1.35,0.03,2.22,0.85,3.18
		c0.83,0.98,1.51,2.1,2.25,3.16c0.86,1.12,1.2,2.35,0.76,3.73C312.13,96.89,312.01,97.53,311.17,97.43z"/>
	<path class="st74" d="M313.33,54.85c1.76,1.17,3.45,2.47,5.63,2.76c0.32,0.04,0.63,0.09,0.68,0.48c0.04,0.38-0.22,0.52-0.53,0.63
		c-0.35,0.12-0.7,0.26-1.01,0.45c-2.2,1.37-2.25,2.15-0.23,3.64c0.24,0.18,0.6,0.31,0.46,0.67c-0.07,0.18-0.39,0.42-0.56,0.39
		c-1.34-0.2-1.92,0.95-2.81,1.53c-0.24-2.86-0.98-5.59-1.99-8.26C312.63,56.26,312.41,55.49,313.33,54.85z"/>
	<path class="st75" d="M329.02,66.53c1.51,1.56,3.75,2.1,5.21,3.72c0,0.42,0,0.85,0,1.27c0.01,0.96,0.23,2.06-1.42,1.38
		c-0.29-0.12-0.78,0.24-1.17,0.38c0.05-1.23-0.36-1.91-1.68-2.4c-1.53-0.56-2.19-2.31-2.62-3.72
		C327.02,66.16,328.42,66.74,329.02,66.53z"/>
	<path class="st76" d="M364.63,31.5c0.77,0.54,1.5,0.32,2.23-0.1c0.39-0.22,0.86-0.37,1.08,0.19c0.18,0.43,0.09,0.92-0.46,1
		c-0.96,0.14-0.97,0.81-0.91,1.5c0.12,1.28-0.42,2.2-1.59,2.6c-0.92,0.31-1.04,0.91-1.02,1.71c0.04,1.59-0.14,3.16-0.69,4.66
		c-0.12-2.38-0.31-4.75-0.35-7.13C362.88,34.26,363.31,32.68,364.63,31.5z"/>
	<path class="st77" d="M310.58,45.23c2.08,0.98,2.64,2.91,2.91,4.93c0.14,1.03-0.23,1.96-1.4,2.25c-1.19,0.3-1.85-0.23-2.09-1.39
		c-0.2-0.95-0.23-1.95-1.08-2.66c-0.38-0.32-0.41-0.88-0.49-1.37C308.08,44.74,308.44,44.45,310.58,45.23z"/>
	<path class="st78" d="M360.56,45.26c0.68,1.83,0.9,3.58-0.69,5.12c-0.2,0.19-0.4,0.6-0.33,0.81c0.83,2.17-1.31,3.35-1.69,5.12
		c-0.16,0.73-1.04,0.97-1.7,1.29c-0.36-1.85,0.02-3.47,1.23-4.98c1.07-1.34,1.76-2.88,1.82-4.72
		C359.23,46.96,359.86,46.01,360.56,45.26z"/>
	<path class="st79" d="M345.82,118.26c0.24-0.85,0.43-1.72,0.72-2.55c0.23-0.66,0.69-1.12,1.45-1.14c-2.17,2.14-0.85,4.4-0.03,6.48
		c1.09,2.78,1.22,5.49,0.34,8.3c-0.16,0.52-0.25,1.08-1.05,1.37c-0.3-1.05-0.28-2.12,0.02-3.03c0.9-2.74,0.53-5.25-0.93-7.69
		C346.05,119.49,345.99,118.84,345.82,118.26z"/>
	<path class="st61" d="M353.47,105.62c-0.94-1.47-0.75-2.74,0.5-3.97c0.87-0.86,1.27-1.92,0.86-3.21c-0.56-1.74,0.3-3.26,0.85-4.82
		c0.13-0.36,0.38-0.66,0.83-0.57c0.59,0.12,0.74,0.59,0.8,1.11c-0.91,2.7-1.49,5.49-2.61,8.13
		C354.24,103.37,354.44,104.71,353.47,105.62z"/>
	<path class="st80" d="M310.58,45.23c-0.59,0-1.17,0-1.88,0c0.42,1.27-0.14,2.81,1.53,3.75c0.65,0.36-0.2,1.34-0.23,2.05
		c-0.96-1.55-1.92-3.1-2.87-4.66c-0.47-0.77-0.8-1.73-0.1-2.36c0.61-0.55,1.52-0.12,2.23,0.27
		C309.72,44.55,310.14,44.91,310.58,45.23z"/>
	<path class="st81" d="M310.77,101.96c0.14-0.02,0.27-0.04,0.41-0.06c0.2,0.06,0.33,0.19,0.34,0.41c0.14,2.39-0.24,4.81,0.24,7.28
		c0.74-0.37,0.3-0.97,0.54-1.36c1.12,1.59,1.33,3.37,1.11,5.24c-0.14,0.12-0.29,0.13-0.45,0.04c-0.35-0.4-0.32-0.91-0.37-1.39
		c-0.05-0.51-0.33-0.59-0.76-0.43c-0.17,0.03-0.3-0.03-0.39-0.18C310.66,108.36,310.75,105.15,310.77,101.96z"/>
	<path class="st82" d="M357.29,75.84c-0.99,0.15-2.14,0.91-2.62-0.74c1.08-0.25,1.54-0.85,0.7-1.75c-0.38-0.4-1.37-0.55-0.89-1.25
		c0.51-0.75,0.88,0.58,1.69,0.38c0-0.95,0-1.96,0-2.97c0.78,0.73,0.05,1.78,0.77,2.98c0-1.28,0-2.16,0-3.03
		C357.48,71.56,357.16,73.71,357.29,75.84z"/>
	<path class="st83" d="M322.34,104.49c-0.12-0.33-0.51-0.72-0.09-0.99c1.02-0.65,0.81-1.3,0.24-2.15c-0.38-0.57-0.19-1.53,0.42-1.54
		c1.93-0.01,2.05-1.82,3.04-2.73C325.3,99.82,324.11,102.3,322.34,104.49z"/>
	<path class="st84" d="M338.38,80.31c1.47,0.6,0.92,1.91,1.05,2.98c-0.43,0.11-0.87,0.22-1.3,0.33
		C338.53,82.54,338.16,81.4,338.38,80.31z"/>
	<path class="st85" d="M311.18,114.57c-0.4,0.49-0.69,1.46-1.49,0.9c-0.91-0.63,0.17-1.15,0.41-1.67c0.25-0.54,0.69-0.99,1.05-1.49
		C311.93,113.06,310.93,113.82,311.18,114.57z"/>
	<path class="st52" d="M346.12,113.45c-0.86,0.5-2.28,0.34-2.25,1.9c-0.36-0.15-0.88,0.15-1.11-0.39
		C343.46,113.51,344.71,113.3,346.12,113.45z"/>
	<path class="st71" d="M298.87,27.14c0.67-0.76,0.97-0.14,1.09,0.38c0.13,0.58,0.04,1.2,0.05,1.8
		C299.63,28.6,299.25,27.87,298.87,27.14z"/>
	<path class="st81" d="M312.31,108.22c-1.12-1.42-0.04-2.34,0.75-3.33C313.57,106.17,311.81,106.94,312.31,108.22z"/>
	<path class="st81" d="M311.18,114.57c-0.48-0.07-0.87-0.25-0.48-0.78c0.33-0.46,0.53-0.91,0.46-1.47c0.1-0.27,0.19-0.54,0.29-0.81
		c0.07,0.06,0.15,0.12,0.22,0.18c0.4,0.62,0.44,1.31,0.39,2.02C311.82,114.04,311.33,114.14,311.18,114.57L311.18,114.57z"/>
	<path class="st74" d="M318.32,53.83c-1.18,0.11-2.34,0.06-3.46-0.35C316.07,53.01,317.19,53.45,318.32,53.83z"/>
	<path class="st78" d="M362.46,44.16c0.12,1.65-0.8,1.52-1.88,1.1C361.2,44.89,361.83,44.52,362.46,44.16z"/>
	<path class="st65" d="M334.2,92.18c-0.13,1.09-0.97,1.48-1.81,1.89C332.68,93.14,333.45,92.67,334.2,92.18z"/>
	<path class="st85" d="M311.18,114.57c0-0.54,0.33-0.75,0.81-0.82c0.28-0.32,0.65-0.35,1.04-0.31c0.13,0.01,0.26,0.01,0.39,0.02
		C313.39,115.27,311.74,113.82,311.18,114.57z"/>
	<path class="st86" d="M314.52,90.73c-1.02-0.72-1.89-1.58-2.6-2.61c0.59-0.99,1.26-1.57,2.31-0.49c0.42,0.44,0.91,0.69,1.45,0.19
		c0.53-0.5,0.34-1.15-0.05-1.49c-1.3-1.12-1.35-2.79-2.01-4.19c-0.19-0.41-0.37-0.88,0-1.2c0.4-0.35,0.87,0.02,1.15,0.28
		c1.28,1.22,2.54,2.47,3.73,3.77c0.41,0.44,0.72,1.14,0.38,1.72c-0.59,1.01-1.44,1.84-0.74,3.21c0.21,0.41-0.48,0.79-1.02,0.8
		C316.25,90.74,315.39,90.73,314.52,90.73z"/>
	<path class="st87" d="M329.01,54.99c0.16,0.29,0.43,0.37,0.73,0.38c0.22,0.48,0.59,0.73,1.12,0.74c0.35,0.59,0.9,0.98,1.38,1.45
		c0.42,0.4,1.94,0.28,1.07,1.27c-0.54,0.62-1.43,2.2-2.84,0.8c-0.52-0.51-1.18-0.87-1.7-1.37C327.47,57,327.54,56.28,329.01,54.99z"
		/>
	<path class="st88" d="M311.53,102.3c-0.11-0.14-0.23-0.27-0.34-0.41c-0.45-1.49-0.46-2.97-0.01-4.46c1.53-1.5,0.7-3.19,0.37-4.84
		c0.25,0.12,0.5,0.25,0.74,0.37c0.6,1.2,1.38,2.37,0.38,3.73c-1.3,1.01-1,2.42-0.89,3.75C311.83,101.1,312.13,101.75,311.53,102.3z"
		/>
	<path class="st89" d="M314.15,74.72c0.39-0.15,0.78-0.5,1.18-0.06c1.6,1.83,3.63,3.33,4.39,5.8c0.28,0.9,0.92,1.31,1.82,1.14
		c0.54-0.1,1-0.24,1.16,0.45c0.59,2.56,1.57,5.13-0.22,7.63c-0.28,0.39-0.4,1.06-1.01,0.89c-0.66-0.18-1.01-0.87-0.86-1.47
		c0.66-2.61-0.79-4.33-2.39-6c-1.61-1.68-2.84-3.75-5.05-4.81c-0.59-0.28-0.37-0.78-0.19-1.28
		C313.29,76.2,314.06,75.63,314.15,74.72C314.15,74.72,314.15,74.72,314.15,74.72z"/>
	<path class="st89" d="M321.96,75.84c0.85-0.35,1.05-1.14,1.34-1.9c0.15-0.4,0.31-0.88,0.81-0.94c0.58-0.07,0.89,0.41,1.11,0.84
		c0.22,0.43,0.37,0.91,0.45,1.39c0.21,1.27-0.22,2.52-0.22,3.81c0.01,1.09-1.06,1.92-2.18,1.9c-1.06-0.02-1.23-1.08-1.28-1.95
		C321.91,77.95,321.96,76.89,321.96,75.84C321.95,75.84,321.96,75.84,321.96,75.84z"/>
	<path class="st90" d="M334.97,92.97c2.25-0.52,4.51-0.97,6.73-1.59c1.05-0.29,2.08-0.37,3.1-0.22c1.25,0.18,1.63,1.29,0.79,2.12
		c-1.17,1.16-2.37,2.27-3.56,3.41c-0.99,0-1.98,0-2.97,0c-0.88-0.42-1.9-0.37-2.76-0.82c-1.01-0.52-1.93-1.14-1.33-2.53
		C334.97,93.22,334.97,93.09,334.97,92.97z"/>
	<path class="st65" d="M334.96,93.34c-0.02,1.25,0.73,1.86,1.79,2.28c0.79,0.31,1.71,0.34,2.31,1.07c-0.25,0-0.5,0-0.75,0.01
		c-0.95-0.14-1.93-0.19-2.86-0.43C333.87,95.85,333.74,94.92,334.96,93.34z"/>
	<path class="st82" d="M349.09,78.82c1.06,0.44,2.21,1.59,2.97-0.37c0.25-0.12,0.49-0.25,0.74-0.37c-0.18,2.48-0.48,4.96,0,7.45
		c-0.27,0.06-0.5-0.04-0.61-0.28c-0.95-2.08-2.56-2.97-4.84-3.04c-1.74-0.05-3-1.33-3.23-2.82c-0.21-1.35,0.61-2.18,1.93-1.9
		C347.15,77.71,348.16,78.19,349.09,78.82z"/>
	<path class="st82" d="M354.67,75.09c-1.35-0.77-1.56-0.01-1.49,1.12c-0.12-0.27-0.36-0.54-0.34-0.8c0.05-0.61-0.4-1.52,0.54-1.72
		C354.39,73.48,354.51,74.36,354.67,75.09z"/>
	<path class="st84" d="M339.8,84.03c0.21-0.21,0.58-0.4,0.62-0.64c0.28-1.83,1.31-2.19,2.92-1.64c0.28,0.1,0.61,0.03,0.92,0.04
		c1.51,1.1,2.75,2.51,4.87,2.75c1.38,0.15,1.44,1.67,0.93,2.72c-0.96,1.95-0.54,3.87-0.14,5.78c0.46,2.15,0.07,3.23-1.94,4.39
		c-0.76-0.69-0.19-1.39,0.01-2.05c1.21-3.97-0.76-6.24-4.77-5.49c-0.57,0.11-1.61,0.35-1.63-0.21c-0.03-0.73,0.58-1.54,1.04-2.22
		c0.46-0.69,0.77-0.09,1.13,0.26c0.58,0.57,0.88,0.09,1.06-0.4c0.52-1.41,0.2-2.82-0.78-3.77c-0.25-0.24-1.91-0.46-2.75,0.19
		C340.79,84.13,340.47,84.73,339.8,84.03z"/>
	<path class="st91" d="M347.97,97.44c1.18-1.49,2.15-2.76,1.31-5.07c-0.53-1.46-1.13-3.6,0.4-5.38c0.5-0.58,0.5-2.22-1.01-2.16
		c-2.34,0.1-3.4-1.36-4.42-3.04c0.25,0,0.5,0,0.74,0c1.07-0.13,1.88,0.54,2.81,0.88c1.92,1.16,4.24,1.95,4.33,4.77
		c0.05,1.14-0.27,2.21-0.66,3.26c-0.29,0.8-0.27,1.58-0.09,2.38c0.07,0.91,0.15,1.81-0.11,2.7c-1.68,2.02-2.75,4.38-3.82,6.75
		c-0.56,1.24-0.92,2.73-0.18,3.76c1.56,2.17,1.23,4.23,0.33,6.41c-0.13,0-0.25,0-0.38,0c0.04-0.8-0.08-1.64,0.15-2.38
		c0.39-1.24,0.05-1.87-1.09-2.51c-1.62-0.91-0.68-2.55-0.62-3.84C345.77,101.59,347.83,99.84,347.97,97.44z"/>
	<path class="st92" d="M350.95,92.97c-0.46-0.75-0.39-1.45-0.02-2.25c0.49-1.04,0.78-2.17,0.76-3.34c0.36-1.9-0.7-2.94-2.21-3.74
		c-0.6-0.32-1.27-0.44-1.88-0.73c-0.94-0.21-1.79-0.62-2.6-1.12c-0.87-0.5-1.84-3.14-1.31-3.91c0.88-1.3,2.13-0.96,3.3-0.45
		c0.77,0.34,1.67,0.52,2.1,1.38c-0.92-0.33-1.85-0.66-2.77-0.99c-0.74-0.26-1.32-0.03-1.79,0.57c-0.49,0.64-0.13,1.2,0.2,1.7
		c0.63,0.96,1.48,1.76,2.7,1.68c2.84-0.2,4.41,1.3,5.37,3.75c0,0.12,0,0.25,0,0.37c0.03,1.31-0.28,2.57,1.45,3.37
		c0.81,0.37,0.93,1.99,0.75,3.08c-0.29,1.75,0.16,3.8-1.91,4.94c-0.63,0.34,0,1,0.19,1.48c0.29,0.73,1.02,1.49,0.44,2.23
		c-0.54,0.69-0.79,1.96-1.82,1.9c-0.95-0.06-0.79-1.22-0.99-1.95c-0.15-0.55-0.47-0.85-1.04-0.87c-0.56-0.03-0.91,0.26-1.17,0.74
		c-0.87,1.6-1,3.36-1.05,5.13c0,0.11,0.04,0.28,0.12,0.34c2.9,2.23,0.34,4.3-0.18,6.42c0.04-0.43-0.06-0.92,0.13-1.27
		c0.81-1.51,0.4-2.74-0.52-4.07c-1.09-1.59-1.14-3.42-0.14-5.07c1.28-2.12,1.47-4.92,3.88-6.34
		C351.45,94.95,351.45,93.96,350.95,92.97z"/>
	<path class="st61" d="M358.02,92.23c-0.91-0.35-0.99-0.89-0.28-2.98C358.19,90.41,357.93,91.35,358.02,92.23
		C358.02,92.23,358.02,92.23,358.02,92.23z"/>
	<path class="st93" d="M313.03,113.44c-0.25,0.43-0.65,0.37-1.04,0.31c-0.71-0.6-0.44-1.35-0.32-2.08c0.32-0.31,0.27-1.08,0.91-0.93
		c0.44,0.1,0.41,0.67,0.43,1.08C313.02,112.37,313.02,112.91,313.03,113.44z"/>
	<path class="st69" d="M347.61,82.91c3.09,0.05,4.94,2.08,4.09,4.47C351.67,84.66,349.05,84.33,347.61,82.91z"/>
	<path class="st69" d="M350.95,92.97c0.99,0.99,0.99,1.99,0,2.98C350.95,94.95,350.95,93.96,350.95,92.97z"/>
</g>
</svg>
